<?xml version="1.0" encoding="UTF-8"?>
<svg id="Layer_1" data-name="Layer 1" xmlns="http://www.w3.org/2000/svg" viewBox="0 0 448.15 278.37">
  <defs>
    <style>
      .cls-1 {
        fill: #eecb00;
        font-family: Poppins-Regular, Poppins;
        font-size: 79.78px;
      }

      .cls-2, .cls-3, .cls-4 {
        stroke-width: 0px;
      }

      .cls-3 {
        fill: #0f341d;
      }

      .cls-4 {
        fill: #fff;
      }
    </style>
  </defs>
  <path class="cls-3" d="m230.1,139.31c0-11.2-.05-22.4,0-33.6C230.4,48.31,276.51,1.65,333.95.06c29.66-.82,56.13,7.07,78.34,27.02,22.77,20.45,34.95,46.21,35.57,76.89.47,23.12.26,46.26.07,69.39-.45,52.75-40.57,97.71-92.93,103.97-34.79,4.16-66.1-3.88-91.91-28.55-21.63-20.68-32.6-46.25-32.99-76.23-.14-11.08-.02-22.16-.02-33.24h.02Zm204.75-11.89c-.25-14.42,1.04-28.92-2.67-43.18C417.19,26.51,357.43-1.23,302.59,19.92c-35.43,13.66-54.9,41.16-58.99,78.95-1.02,9.47-.15,19.14-.15,28.49,22.08,2.57,43.27.5,63.78-9.82-13.96,2.43-27.39,4.77-40.81,7.12-.04-.19-.07-.38-.11-.58,12.94-2.88,25.87-5.76,38.81-8.63-.07-.31-.13-.62-.2-.93-13.01.97-26.02,1.93-39.03,2.9-.02-.21-.03-.42-.05-.64,12.52-1.5,25.03-3.01,37.55-4.51-.02-.54-.05-1.08-.07-1.63h-39.93c0-.63,0-1.25.01-1.88h38.34c0-.46.02-.92.03-1.37-11.76-1.41-23.51-2.82-35.27-4.22.02-.21.03-.43.05-.64,11.38.81,22.75,1.62,34.13,2.43.05-.5.11-.99.16-1.49-12.4-2.76-24.79-5.52-37.19-8.28.03-.15.06-.29.1-.44,12.06,2.09,24.11,4.18,36.17,6.27.15-.54.3-1.09.45-1.63-9.3-3.09-18.6-6.17-27.9-9.26.08-.24.15-.48.23-.71,8.89,2.45,17.78,4.91,26.67,7.36.23-.53.46-1.06.69-1.59-4.5-2.7-9.55-4.39-14.33-6.58-4.84-2.22-9.72-4.37-14.58-6.55.08-.18.16-.37.24-.55,9.23,3.58,18.47,7.17,27.7,10.75.28-.32.56-.64.84-.95-.83-.88-1.51-1.99-2.5-2.58-4.39-2.62-8.87-5.08-13.31-7.61-3.15-1.79-6.3-3.6-9.44-5.4.11-.18.22-.36.33-.55,8.07,4.1,16.15,8.2,24.22,12.3.3-.27.59-.54.89-.82-.74-1.11-1.26-2.52-2.27-3.27-5.59-4.15-11.29-8.13-16.96-12.18.14-.21.28-.41.42-.62,6.17,3.94,12.34,7.88,18.52,11.82.37-.29.74-.57,1.11-.86-.76-1.37-1.24-3.06-2.34-4.07-4.78-4.37-9.74-8.54-14.64-12.79.16-.19.31-.38.47-.57,5.44,4.28,10.88,8.56,16.31,12.84.34-.3.69-.6,1.03-.89-.72-7.57-9.1-10.04-11.38-15.08.86-2.17,1.59-3.48,1.88-4.88.42-1.97-.59-4.08,2.06-5.62,2.25-1.31,3.8-3.84,5.74-5.92.75,1.07,1.14,1.62,1.75,2.48.46-1.13.78-1.94,1.13-2.83.49.88.91,1.62,1.41,2.53.51-1.05.88-1.79,1.37-2.8,1,1.11,2.54,2.03,2.6,3.02.28,5.4,4.95,4.47,8.38,6.83-.8-2.66-1.31-4.35-1.82-6.04,2.2,3.36,3.97,6.8,5.64,10.29,1.67,3.49,3.42,6.97,4.78,10.58,1.3,3.44,2.14,7.05,3.18,10.58.31-.11.62-.21.94-.32-3.14-12.93-6.27-25.87-9.41-38.8.2-.05.41-.1.61-.16,3.76,12.88,7.51,25.76,11.27,38.64.27-.06.55-.12.82-.18-1.79-13.45-3.58-26.9-5.38-40.35.2-.03.39-.06.59-.09,2.52,13.84,5.03,27.68,7.55,41.52.22-.03.43-.06.65-.1-.47-15.8-.93-31.61-1.4-47.41.13,0,.26,0,.39-.01,1.16,15.36,2.32,30.72,3.48,46.08.26.01.53.03.79.04,1.21-15.65,2.42-31.3,3.63-46.95.1,0,.19,0,.29.01-.46,15.88-.92,31.77-1.37,47.65.24.03.49.05.73.08,2.54-14,5.08-28,7.63-42.01.18.03.36.05.55.08-1.91,14.3-3.81,28.61-5.72,42.91.2.05.4.1.6.15,3.68-12.61,7.37-25.22,11.05-37.82.24.07.47.13.71.2-3,12.42-6.01,24.84-9.01,37.26.24.07.47.14.71.21,4.97-12.11,9.94-24.23,14.91-36.34.21.08.43.17.64.25-4.25,11.94-8.51,23.88-12.76,35.82.28.12.56.24.84.36,5.68-10.56,11.37-21.12,17.05-31.68.23.12.47.24.7.36-5.37,11.21-10.74,22.42-16.11,33.63.29.16.57.32.86.48,2.73-4.51,5.47-9.01,8.19-13.53,1.18-1.97,2.14-4.1,3.5-5.93,2.52-3.38,5.27-6.59,7.91-9.88.3-.38.52-.82.82-1.21.28-.37.62-.69,1.57-1.74-1.81,5.43-7.68,8.81-3.48,14.71,2.63-3.05,5.25-6.07,8.26-9.56-.69,4.61-7.42,6.4-3.5,12.62,5.15-4.76,10.05-9.3,14.95-13.83.04.04.07.08.11.13-4.12,4.53-8.25,9.05-12.36,13.58,4.54,3.97,7.07-.42,9.46-1.69-2.22,3.56-4.57,7.31-6.91,11.07.33.23.66.47.99.7,4.74-3.02,9.49-6.03,14.23-9.05l.33.52c-4.56,3.29-9.13,6.58-13.18,9.49.78,1.35,1.39,2.41,2.04,3.53,4.87-2.46,9.36-4.74,13.85-7.01-5.65,4.97-13.94,6.48-17.46,14.4,6.41-2.48,12.59-4.87,18.77-7.26-.9,1.19-2.05,1.79-3.23,2.31-5.01,2.21-10.03,4.4-15.05,6.59-1.63.71-3.16,1.45-1.7,3.8,9.66-2.69,19.25-5.37,28.84-8.05.05.16.09.32.14.47-9.97,3.28-19.95,6.55-29.92,9.83,0,.38-.01.77-.02,1.15,1.26.26,2.54.79,3.79.71,1.93-.11,3.83-.65,5.75-.98,6.35-1.11,12.7-2.21,19.04-3.31-7.83,2.38-15.78,4.07-23.69,5.93-1.07.25-1.96,1.33-2.93,2.02.23.37.45.75.68,1.12,8.77-.61,17.54-1.23,26.3-1.84-8.41,1.65-16.86,2.63-25.29,3.73-1.12.15-2.16.96-3.23,1.47.13.44.26.89.39,1.33h31.62c-2.01,1-4.04,1.29-6.07,1.33-8.52.18-17.05.25-25.57.47-1.49.04-2.96.57-4.44.87.06.35.13.71.19,1.06,11.07,1.33,22.14,2.66,33.21,3.99-.02.21-.04.41-.06.62-12.69-.92-25.37-1.85-38.06-2.77-.03.36-.06.72-.09,1.08,12.52,2.77,25.03,5.55,37.55,8.32-.04.2-.08.4-.13.61-13.12-2.3-26.24-4.6-40.04-7.02,20.35,10.59,41.39,12.05,63.51,9.81Zm-122.16,60.94c4.96-.05,9.61-2.77,12.49-8.11,3.42-6.34,3.7-12.98.91-19.65-2.65-6.32-7.38-9.77-14.34-9.85-7.03-.08-11.7,3.55-14.44,9.72-2.82,6.33-2.7,12.82.3,19.03,2.75,5.7,7.39,8.86,15.08,8.86Zm17.14-19.31c.29.12.59.25.88.37.09,1.33.12,2.67.28,3.99.98,7.8,6.61,14,13.39,14.8,7.97.94,14.34-2.75,17.24-10.37,2.7-7.1,2.24-14.12-2.05-20.53-5.92-8.86-19.15-9.07-24.98-.14-2.29,3.51-3.22,7.9-4.77,11.89Zm-44.21,57.55c0,6.59,0,12.65,0,18.7,0,4.55.13,4.64,4.99,3.66.15-2.16.31-4.38.47-6.6.33-.26.66-.52.99-.79,1.44,1.09,3.43,1.88,4.22,3.32,2,3.65,4.54,5.49,8.78,4.44.67-.17,1.45.03,2.17.13,2.36.35,3.83-.4,4.74-2.81.38-1,1.91-1.92,3.07-2.19,1.62-.37,3.43-.34,5.07-.02,1.07.21,2.6,1.06,2.86,1.94,1.07,3.61,3.41,3.4,6.63,2.66-3.1-7.28-6.04-14.31-9.12-21.27-.3-.68-1.38-1.22-2.2-1.41-2.04-.48-3.31.33-4.16,2.42-2.7,6.7-5.61,13.31-8.68,20.52-2.03-2.98-3.63-5.34-5.29-7.79.57-.47.83-.72,1.13-.91,3.31-2.2,4.1-5.36,3.07-8.95-1.02-3.53-3.89-4.86-7.27-5.01-3.63-.15-7.26-.03-11.47-.03Zm4.84-38.96v-37.4c-5.54,1.27-10.6,2.44-16.01,3.68.76,2.63,1.34,4.66,1.93,6.68,2.25-.34,4.09-.62,6.44-.98v28.02h7.65Zm46.1,48.94c.31-.05.61-.11.92-.16,2.94,3.86,5.77,7.81,8.9,11.52.77.91,2.46,1.19,3.78,1.41.41.07,1.46-.98,1.47-1.54.1-6.98.07-13.97.07-20.97h-5.18v11.99c-3.24-3.04-5.85-6.19-8.15-9.55-1.68-2.45-3.59-3.41-6.54-2.29v22.28h4.74v-12.69Zm-9.82-23.18c3.94-1.53,5.01,1.53,6.19,3.69,1.79,3.3,4.21,3.76,7.83,2.69-1.72-2.64-3.27-5.03-4.85-7.45.64-.53,1-.85,1.37-1.13,3.01-2.27,3.79-5.29,2.73-8.76-1.07-3.5-3.8-4.86-7.27-4.99-1.22-.05-2.43-.06-3.65-.06q-7.74-.02-7.74,7.88c0,4.93,0,9.86,0,15.05,2.06-.1,3.45-.17,4.95-.24.16-2.52.3-4.66.42-6.68Zm45.63,19.54c.96-1.14,1.87-2.22,2.72-3.22-.25-.48-.31-.75-.47-.89-4.78-4.12-12.92-3.53-17.18,1.23-4.23,4.73-4.01,12.22.48,16.54,4.25,4.1,13.47,4.21,17.47.17.46-.46.84-1.23.86-1.87.09-2.76.04-5.52.04-8.45h-9.83v4.02c1.69.21,3.11.39,4.52.57.23.31.46.62.69.93-.99.97-1.83,2.45-3.01,2.82-3.05.96-5.84.1-7.63-2.72-1.81-2.86-1.67-5.83.33-8.54,1.9-2.57,4.6-3.02,7.53-2.13,1.14.35,2.19.97,3.48,1.55Zm-3.94-30.91h11.81v-4.28h-16.84v22.54c4.93,0,9.64-.03,14.35.02,1.77.02,3.06-.14,2.99-2.49-.06-2.22-1.35-2.2-2.91-2.18-3.09.03-6.18.01-9.33.01v-4.65c1.58,0,3.11.33,4.41-.08,2.06-.64,5.91,2.2,6.02-2.14.11-4.4-3.78-1.79-5.83-2.33-1.44-.37-3.05-.07-4.67-.07v-4.35Zm26.48,33.47h-10.24v-4.4h11.55v-4.17h-17c0,6.92.04,13.49-.03,20.05-.02,1.91.72,2.57,2.6,2.52,4.02-.09,8.04-.04,12.05,0,1.61.02,2.84-.14,2.9-2.26.07-2.41-1.38-2.43-3.08-2.41-3.01.03-6.01,0-9.07,0v-4.78h10.31v-4.54Zm-46.58-33.59h12.02c-.08-1.69-.14-2.96-.21-4.49-5.21,0-10.06-.06-14.9.07-.7.02-1.96.93-1.97,1.44-.13,7-.09,14.01-.09,21.36,4.86,0,9.22.02,13.57,0,4.05-.02,4.28-.36,2.96-4.85h-11.38v-4.46h10.3v-4.7h-10.3v-4.38Zm21.02-14.44q5.87.67,8.65-3.13c3.29-4.51,6.57-9.02,9.86-13.52,4.55-6.24,9.09-12.48,13.73-18.85-5.28-1.23-5.54-1.13-8.22,2.54-3.43,4.7-6.9,9.38-10.32,14.09-4.47,6.14-8.93,12.3-13.7,18.87Zm-67.51,32.5q5,.57,5.02-3.75c0-1.51,0-3.02,0-4.7,2.85,0,5.04-.17,7.21.04,3.62.34,4.18-1.38,3.17-4.8-2.2,0-4.49-.15-6.74.04-3.54.3-4.23-1.34-3.18-4.86h11.64c.26-.35.51-.69.77-1.04-.77-1.16-1.49-3.27-2.33-3.32-5.14-.31-10.31-.16-15.56-.16v22.55Zm81.48-59.8c0-5.41-3.83-9.34-9.07-9.28-4.99.06-8.88,4.34-8.78,9.67.1,5.16,3.97,9.1,8.94,9.12,5.08.01,8.9-4.07,8.91-9.5Zm4.57,18.9c.04,5.3,3.69,9.1,8.77,9.14,5.13.04,8.93-3.96,8.94-9.41,0-5.49-3.7-9.34-8.97-9.32-5.1.02-8.78,4.06-8.74,9.59Zm-80.44-58.33c-7.64,2.16-15.27,4.31-23.73,6.7,9.81,2.4,16.51-2.97,23.73-6.7Zm85.57,6.33c-7.27-2.04-14.53-4.09-21.8-6.13-.09.3-.17.6-.26.9,7.06,2.76,13.42,7.9,22.06,5.23Zm-99.92-65.87c3.15,3.32,6.12,6.46,9.5,10.02.17-2.05.31-3.71.46-5.57q-4.94,1.22-6.69-5.26c-1.16.28-2.31.57-3.28.81Zm17.5,62.81c-.12-.27-.23-.54-.35-.81-3.38,1.33-6.76,2.67-10.14,4,.2.45.39.91.59,1.36,3.3-1.52,6.6-3.04,9.9-4.56Z"/>
  <path class="cls-4" d="m312.69,188.36c-7.69,0-12.33-3.16-15.08-8.86-3-6.21-3.12-12.71-.3-19.03,2.75-6.17,7.42-9.79,14.44-9.72,6.96.08,11.69,3.52,14.34,9.85,2.8,6.67,2.51,13.31-.91,19.65-2.88,5.35-7.53,8.06-12.49,8.11Zm7.12-19.06c-.63-2.28-1.01-4.71-1.98-6.87-1.21-2.69-3.36-4.42-6.59-4.28-3.08.13-4.94,1.98-6.04,4.56-1.88,4.44-1.92,9.02-.02,13.46,1.22,2.86,3.33,4.78,6.7,4.72,3.22-.06,5.23-1.94,6.27-4.73.79-2.12,1.09-4.43,1.65-6.87Z"/>
  <path class="cls-4" d="m329.82,169.05c1.55-3.99,2.48-8.38,4.77-11.89,5.83-8.93,19.06-8.72,24.98.14,4.29,6.42,4.75,13.43,2.05,20.53-2.9,7.63-9.27,11.31-17.24,10.37-6.79-.8-12.41-7-13.39-14.8-.17-1.32-.19-2.66-.28-3.99-.29-.12-.59-.25-.88-.37Zm8.81.48c.74,2.54,1.21,5.06,2.23,7.34,1.16,2.6,3.44,4.65,6.32,3.9,2.21-.57,4.84-2.15,5.89-4.04,2.67-4.84,2.48-10.15-.31-14.99-2.94-5.09-9.34-4.85-11.93.43-1.09,2.23-1.46,4.82-2.19,7.37Z"/>
  <path class="cls-4" d="m285.62,226.6c4.21,0,7.85-.12,11.47.03,3.39.14,6.26,1.48,7.27,5.01,1.04,3.59.24,6.75-3.07,8.95-.3.2-.56.45-1.13.91,1.66,2.45,3.26,4.81,5.29,7.79,3.07-7.2,5.97-13.82,8.68-20.52.84-2.08,2.11-2.9,4.16-2.42.82.19,1.9.73,2.2,1.41,3.08,6.97,6.03,14,9.12,21.27-3.21.74-5.55.95-6.63-2.66-.26-.88-1.79-1.73-2.86-1.94-1.64-.32-3.45-.35-5.07.02-1.17.27-2.7,1.19-3.07,2.19-.91,2.41-2.39,3.16-4.74,2.81-.72-.11-1.5-.3-2.17-.13-4.25,1.05-6.78-.79-8.78-4.44-.79-1.44-2.78-2.23-4.22-3.32-.33.26-.66.52-.99.79-.16,2.22-.31,4.44-.47,6.6-4.86.98-4.98.89-4.99-3.66,0-6.05,0-12.11,0-18.7Zm5.37,11.85c3.16-1.05,5.67-1.75,8.03-2.8.35-.15.24-2.73-.13-2.86-2.45-.87-5.03-1.37-7.91-2.08v7.74Zm23.88.99h5.46c-.96-2.22-1.73-4.01-2.81-6.51-1.06,2.61-1.81,4.45-2.65,6.51Z"/>
  <path class="cls-4" d="m290.45,187.64h-7.65v-28.02c-2.35.36-4.19.64-6.44.98-.58-2.02-1.17-4.04-1.93-6.68,5.41-1.24,10.47-2.41,16.01-3.68v37.4Z"/>
  <path class="cls-4" d="m336.55,236.57v12.69h-4.74v-22.28c2.95-1.12,4.86-.16,6.54,2.29,2.3,3.36,4.91,6.51,8.15,9.55v-11.99h5.18c0,7,.03,13.99-.07,20.97,0,.55-1.06,1.61-1.47,1.54-1.32-.22-3.01-.5-3.78-1.41-3.12-3.71-5.96-7.66-8.9-11.52-.31.05-.61.11-.92.16Z"/>
  <path class="cls-4" d="m326.73,213.4c-.13,2.02-.26,4.16-.42,6.68-1.51.07-2.9.14-4.95.24,0-5.19,0-10.12,0-15.05q0-7.89,7.74-7.88c1.22,0,2.43.01,3.65.06,3.47.13,6.19,1.49,7.27,4.99,1.06,3.47.28,6.49-2.73,8.76-.38.28-.73.6-1.37,1.13,1.58,2.43,3.13,4.81,4.85,7.45-3.62,1.07-6.04.6-7.83-2.69-1.18-2.16-2.25-5.22-6.19-3.69Zm0-4.37c2.92-.76,5.4-1.25,7.71-2.17.43-.17.5-2.98.15-3.11-2.39-.95-4.94-1.52-7.86-2.33v7.62Z"/>
  <path class="cls-4" d="m372.36,232.94c-1.28-.58-2.34-1.21-3.48-1.55-2.93-.89-5.63-.44-7.53,2.13-2,2.7-2.14,5.68-.33,8.54,1.79,2.82,4.58,3.68,7.63,2.72,1.18-.37,2.01-1.85,3.01-2.82-.23-.31-.46-.62-.69-.93-1.41-.18-2.82-.35-4.52-.57v-4.02h9.83c0,2.93.05,5.7-.04,8.45-.02.64-.4,1.4-.86,1.87-4,4.04-13.22,3.93-17.47-.17-4.49-4.32-4.71-11.81-.48-16.54,4.26-4.76,12.4-5.35,17.18-1.23.17.15.23.42.47.89-.84,1-1.76,2.09-2.72,3.22Z"/>
  <path class="cls-4" d="m368.42,202.02v4.35c1.62,0,3.23-.3,4.67.07,2.05.53,5.94-2.07,5.83,2.33-.11,4.34-3.95,1.5-6.02,2.14-1.3.41-2.84.08-4.41.08v4.65c3.15,0,6.24.02,9.33-.01,1.56-.02,2.85-.04,2.91,2.18.06,2.35-1.22,2.51-2.99,2.49-4.71-.05-9.41-.02-14.35-.02v-22.54h16.84v4.28h-11.81Z"/>
  <path class="cls-4" d="m394.91,235.49v4.54h-10.31v4.78c3.06,0,6.06.02,9.07,0,1.7-.02,3.15,0,3.08,2.41-.06,2.13-1.29,2.28-2.9,2.26-4.02-.04-8.04-.09-12.05,0-1.88.04-2.62-.61-2.6-2.52.07-6.56.03-13.12.03-20.05h17v4.17h-11.55v4.4h10.24Z"/>
  <path class="cls-4" d="m348.33,201.9v4.38h10.3v4.7h-10.3v4.46h11.38c1.32,4.49,1.1,4.83-2.96,4.85-4.35.02-8.71,0-13.57,0,0-7.35-.04-14.36.09-21.36,0-.51,1.27-1.42,1.97-1.44,4.85-.13,9.7-.07,14.9-.07.07,1.53.13,2.79.21,4.49h-12.02Z"/>
  <path class="cls-4" d="m369.35,187.46c4.77-6.58,9.22-12.73,13.7-18.87,3.43-4.71,6.89-9.38,10.32-14.09,2.68-3.67,2.94-3.78,8.22-2.54-4.64,6.37-9.18,12.61-13.73,18.85-3.28,4.51-6.57,9.02-9.86,13.52q-2.78,3.8-8.65,3.13Z"/>
  <path class="cls-4" d="m301.83,219.96v-22.55c5.25,0,10.42-.16,15.56.16.84.05,1.56,2.16,2.33,3.32-.26.35-.51.69-.77,1.04h-11.64c-1.05,3.52-.36,5.15,3.18,4.86,2.26-.19,4.55-.04,6.74-.04,1,3.42.45,5.14-3.17,4.8-2.16-.21-4.36-.04-7.21-.04,0,1.68,0,3.19,0,4.7q-.02,4.32-5.02,3.75Z"/>
  <path class="cls-4" d="m383.32,160.16c0,5.44-3.82,9.52-8.91,9.5-4.97-.01-8.85-3.96-8.94-9.12-.1-5.33,3.79-9.61,8.78-9.67,5.23-.06,9.07,3.86,9.07,9.28Zm-13.48.14c2.04,1.9,3.38,3.14,4.71,4.38,1.05-1.4,2.74-2.69,3-4.22.37-2.17-.52-4.78-3.39-4.34-1.36.21-2.43,2.26-4.32,4.18Z"/>
  <path class="cls-4" d="m387.89,179.06c-.04-5.53,3.64-9.57,8.74-9.59,5.27-.02,8.97,3.83,8.97,9.32,0,5.45-3.8,9.46-8.94,9.41-5.08-.04-8.73-3.85-8.77-9.14Zm13.5-.39c-2.19-1.89-3.56-3.07-4.92-4.25-1.01,1.44-2.63,2.79-2.87,4.35-.31,1.97.54,4.6,3.17,4.19,1.44-.22,2.59-2.31,4.62-4.29Z"/>
  <path class="cls-2" d="m319.8,169.31c-.57,2.45-.86,4.75-1.65,6.87-1.04,2.78-3.05,4.67-6.27,4.73-3.37.06-5.48-1.86-6.7-4.72-1.9-4.45-1.86-9.02.02-13.46,1.1-2.59,2.96-4.43,6.04-4.56,3.23-.14,5.38,1.59,6.59,4.28.97,2.16,1.35,4.59,1.98,6.87Z"/>
  <path class="cls-2" d="m338.63,169.54c.73-2.55,1.1-5.14,2.19-7.37,2.59-5.28,8.99-5.52,11.93-.43,2.79,4.85,2.98,10.15.31,14.99-1.05,1.9-3.68,3.47-5.89,4.04-2.88.75-5.16-1.3-6.32-3.9-1.01-2.28-1.48-4.8-2.23-7.34Z"/>
  <path class="cls-2" d="m290.98,238.45v-7.74c2.88.71,5.46,1.22,7.91,2.08.37.13.47,2.7.13,2.86-2.36,1.05-4.87,1.75-8.03,2.8Z"/>
  <path class="cls-2" d="m314.86,239.44c.84-2.06,1.59-3.9,2.65-6.51,1.08,2.5,1.85,4.29,2.81,6.51h-5.46Z"/>
  <path class="cls-2" d="m326.74,209.02v-7.62c2.92.81,5.47,1.38,7.86,2.33.34.14.28,2.94-.15,3.11-2.31.93-4.79,1.41-7.71,2.17Z"/>
  <path class="cls-2" d="m369.83,160.3c1.9-1.92,2.97-3.97,4.32-4.18,2.87-.45,3.76,2.17,3.39,4.34-.27,1.53-1.95,2.82-3,4.22-1.33-1.24-2.67-2.48-4.71-4.38Z"/>
  <path class="cls-2" d="m401.4,178.67c-2.03,1.98-3.18,4.07-4.62,4.29-2.64.41-3.48-2.22-3.17-4.19.25-1.56,1.86-2.91,2.87-4.35,1.37,1.18,2.74,2.36,4.92,4.25Z"/>
  <text class="cls-1" transform="translate(0 120.94)"><tspan x="0" y="0">Grain </tspan><tspan x="47.07" y="95.74">Fed</tspan></text>
</svg>