<?xml version="1.0" encoding="UTF-8"?>
<svg id="Layer_1" data-name="Layer 1" xmlns="http://www.w3.org/2000/svg" viewBox="0 0 450.27 269.09">
  <defs>
    <style>
      .cls-1 {
        fill: #fff;
        stroke-width: 0px;
      }
    </style>
  </defs>
  <path class="cls-1" d="m80.08,137.85c-3.28,0-6.49-.03-9.69.02-.9.01-1.31-.52-1.63-1.16-2.56-4.99-5.07-10.01-7.63-15-1.67-3.26-3.41-6.47-5.09-9.72-2.24-4.35-4.45-8.72-6.69-13.06-1.62-3.14-3.29-6.24-4.91-9.38-2.33-4.52-4.59-9.07-6.94-13.58-2.77-5.33-5.62-10.62-8.38-15.95-3.09-5.96-6.1-11.97-9.16-17.94-1.25-2.44-2.53-4.86-3.81-7.28-.14-.26-.35-.47-.74-.66-.21,7.39-.2,14.75-.2,22.1,0,7.33,0,14.67,0,22v66.39c0,7.39,0,14.78,0,22.11-1.57.54-13.25.6-15.2.11V2.05c.69-.05,1.26-.12,1.83-.12,4.06,0,8.12.05,12.17-.04,1.3-.03,2.04.39,2.62,1.53,2.93,5.75,5.92,11.47,8.87,17.21,3.1,6.03,6.17,12.08,9.29,18.1,1.68,3.25,3.43,6.46,5.11,9.71,2.22,4.28,4.38,8.59,6.59,12.87,1.65,3.19,3.37,6.34,5.02,9.53,2.71,5.22,5.37,10.45,8.08,15.67,2.28,4.4,4.61,8.77,6.9,13.17,2.22,4.28,4.41,8.58,6.62,12.87.51.98,1.07,1.93,1.79,3.23,10.05-19.11,19.78-38.1,29.65-57.02,9.86-18.91,19.62-37.88,29.39-56.77h15.24c.43,1.47.6,161.4.2,164.76-1.33.48-12.22.6-14.84.11V33.5c-.14-.05-.28-.09-.42-.14-2.53,4.11-4.43,8.57-6.76,12.78-2.39,4.33-4.54,8.81-6.79,13.22-2.23,4.35-4.47,8.71-6.71,13.05-2.25,4.35-4.52,8.69-6.75,13.04-2.23,4.35-4.42,8.72-6.66,13.07-2.27,4.41-4.6,8.79-6.87,13.21-2.24,4.35-4.44,8.73-6.68,13.08-2.24,4.34-4.52,8.66-6.81,13.04Z"/>
  <path class="cls-1" d="m246.9,79.29c11.29,12.32,22.47,24.52,33.82,36.9,6.67-10.82,13.26-21.51,19.96-32.39,2.36.65,4.08,2.45,6.15,3.57,2.05,1.11,3.95,2.5,6.09,3.88-7.43,12.11-14.75,24.05-22.18,36.15,10.13,10.76,20.24,21.5,30.5,32.4-3.75,3.26-7.41,6.44-11.22,9.76-9.15-9.78-18.16-19.42-27.34-29.23-.98,1.4-1.83,2.61-2.68,3.81-3.3,4.66-7.09,8.84-11.52,12.48-6.15,5.05-13.19,8.23-20.92,9.65-5.92,1.08-11.93,1.15-17.98.42-5.79-.7-11.26-2.3-16.49-4.74-6.73-3.14-12.42-7.63-17-13.53-3.04-3.92-5.31-8.23-6.83-12.91-2.31-7.12-2.63-14.37-1.02-21.7,1.15-5.25,3.36-10.03,6.52-14.34,3.07-4.18,6.76-7.78,10.81-11.02,5.52-4.41,11.49-8.13,17.57-11.7.17-.1.32-.22.63-.44-1.66-1.78-3.27-3.54-4.92-5.27-4.01-4.22-7.65-8.75-10.58-13.77-5.14-8.81-7.11-18.24-4.44-28.29,1.59-5.97,4.66-11.12,9.05-15.55,3.71-3.75,8.03-6.49,12.84-8.38,5.94-2.33,12.17-2.97,18.52-2.2,4.24.51,8.31,1.6,12.2,3.46,5.16,2.47,9.49,5.92,13.01,10.43,2.48,3.18,4.34,6.71,5.47,10.54,1.61,5.45,2.16,11.01,1.05,16.68-.88,4.48-2.42,8.68-4.82,12.54-2.24,3.61-4.9,6.89-7.93,9.87-4.72,4.64-9.95,8.6-15.5,12.19-.22.14-.39.35-.84.76Zm-7.95,73.99c1.17-.08,2.35-.15,3.52-.25,8.46-.74,15.54-4.44,21.21-10.58,3.12-3.38,5.64-7.31,8.38-11.03,1.04-1.42.95-1.77-.22-3.04-1.84-2.02-3.66-4.05-5.52-6.05-5.24-5.63-10.5-11.24-15.73-16.88-5.28-5.69-10.53-11.4-15.79-17.09-1.47-1.59-1.47-1.58-3.35-.43-2.78,1.7-5.6,3.34-8.35,5.08-4.65,2.93-9,6.23-12.76,10.27-2.97,3.2-5.37,6.78-6.55,10.99-3.09,11.03-.42,20.66,7.53,28.82,4.68,4.8,10.42,7.74,16.92,9.27,3.53.83,7.11.98,10.71.92Zm-1.62-84.09c1.46-.94,2.82-1.82,4.19-2.68,5.19-3.29,9.99-7.03,13.92-11.84,4.69-5.73,6.94-12.19,6.17-19.59-.56-5.37-2.58-10.09-6.69-13.74-3.53-3.12-7.66-4.89-12.38-5.26-5.32-.42-10.42.06-15,3.2-7.38,5.07-10.41,12.12-9.65,20.91.42,4.86,2.75,8.96,5.56,12.76,2.55,3.45,5.31,6.74,8.08,10.01,1.8,2.13,3.8,4.09,5.81,6.23Z"/>
  <path class="cls-1" d="m449.02,37.32c-1.08.44-1.85.79-2.64,1.07-3.62,1.29-7.24,2.56-10.97,3.88-.92-2.11-1.71-4.18-2.69-6.16-2.43-4.91-5.78-9.07-10.02-12.56-3.68-3.02-7.77-5.33-12.23-6.87-6.17-2.13-12.58-2.98-19.11-2.72-5.06.2-10.06.94-14.82,2.61-7.08,2.49-13.01,6.6-16.81,13.31-1.46,2.59-2.42,5.38-2.93,8.28-.92,5.16-.95,10.31,1.21,15.23,1.59,3.61,4.18,6.47,7.32,8.78,4.45,3.28,9.39,5.64,14.63,7.36,5.27,1.73,10.56,3.43,15.86,5.05,4.12,1.26,8.28,2.37,12.41,3.59,1.63.48,3.26.98,4.83,1.61,4.48,1.8,9.02,3.48,13.37,5.55,6.12,2.91,11.62,6.8,15.91,12.12,3.31,4.1,5.55,8.75,6.75,13.97,1.35,5.84,1.52,11.67.63,17.54-1.41,9.38-5.37,17.51-12.12,24.24-4.49,4.48-9.66,7.89-15.5,10.36-12.27,5.2-25,6.14-38.09,4.56-6.42-.78-12.59-2.39-18.47-4.99-3.15-1.39-6.12-3.22-9.03-5.08-6.35-4.05-11.51-9.41-15.99-15.39-2.77-3.69-5.1-7.7-7.75-11.76,4.31-2.95,8.64-5.4,12.97-8.01,2.16,4.27,4.5,8.25,7.33,11.94,3.66,4.75,7.95,8.79,12.95,12.1,6.46,4.27,13.62,6.77,21.22,7.51,6.96.68,13.98.57,20.88-1.14,4.14-1.03,8.16-2.25,11.9-4.37,4.95-2.81,8.81-6.6,11.45-11.68,3.02-5.82,3.95-12.01,3.38-18.44-.52-5.8-3.26-10.45-7.67-14.26-3.82-3.3-8.22-5.54-12.79-7.47-3.36-1.42-6.81-2.66-10.29-3.77-5.28-1.7-10.63-3.18-15.93-4.84-4.17-1.31-8.31-2.73-12.46-4.11-4.9-1.64-9.6-3.75-14.1-6.29-6.95-3.92-12.84-8.95-16.64-16.12-2.75-5.19-3.83-10.81-4-16.62-.15-5.27.49-10.47,2.08-15.49,1.04-3.3,2.59-6.42,4.53-9.31,3.55-5.3,8.21-9.46,13.7-12.61,5.52-3.17,11.46-5.31,17.74-6.53,6.53-1.27,13.08-1.66,19.71-1.25,4.2.26,8.33.91,12.4,1.86,3.1.72,6.15,1.8,9.1,3.04,4.15,1.75,8.07,3.98,11.63,6.78,5.2,4.08,9.51,8.95,12.62,14.79,1.47,2.76,2.66,5.66,3.93,8.52.28.63.38,1.35.61,2.17Z"/>
  <path class="cls-1" d="m309.05,250.31c1.22,1.05,2.32,1.96,3.37,2.91.84.76,1.34,1.72,1.61,2.85,1.19,4.99-.86,9.86-5.94,11.75-4.96,1.84-9.75,1.65-14.23-1.36-2.23-1.5-3.39-3.68-3.67-6.37-.32-3.11.32-5.85,2.83-7.92.74-.61,1.55-1.12,2.41-1.73-.27-.25-.45-.43-.64-.59-5.59-4.65-4.79-11.92,1.67-15.18,3.44-1.73,10.69-1.64,14.09,1.64,3.84,3.71,3.79,9.46-.19,12.99-.39.34-.82.64-1.32,1.02Zm-6.77,14.77c.9-.11,1.83-.15,2.71-.35,2.73-.64,4.59-2.81,4.8-5.5.21-2.73-1.07-4.94-3.51-5.97-2.65-1.11-5.34-1.12-8-.05-3.38,1.36-4.72,5.62-2.74,8.67,1.59,2.45,3.97,3.2,6.75,3.2Zm.13-16.52c1.52.14,2.88-.41,4.18-1.23,1.71-1.08,2.48-2.67,2.34-4.61-.14-1.98-.95-3.68-2.91-4.53-2.24-.98-4.52-1.09-6.86-.3-2.25.75-3.37,2.32-3.52,4.63-.15,2.2.62,3.92,2.61,5.06,1.29.75,2.64,1.08,4.16.99Z"/>
  <path class="cls-1" d="m261.08,250.57c-1.12-1.34-2.35-2.4-3.06-3.74-2.17-4.12-1.06-10.24,4.85-12.37,4.29-1.54,8.62-1.46,12.6,1.14,3.01,1.96,3.95,4.91,3.62,8.34-.26,2.79-1.74,4.87-4.31,6.34.47.4.76.73,1.12.94,3.12,1.83,4.59,4.56,4.3,8.16-.34,4.27-2.56,7.18-6.62,8.59-4.92,1.7-9.65,1.43-14.03-1.6-4.37-3.03-5.58-11.55.64-15.12.33-.19.61-.46.88-.66Zm7.04,14.5c.84-.09,1.7-.13,2.53-.3,2.53-.52,4.4-2.43,4.79-4.81.5-3.05-.38-5.06-2.84-6.5-2.75-1.6-7.25-1.16-9.92.57-2.77,1.8-2.73,7.68.07,9.43,1.69,1.06,3.41,1.59,5.37,1.61Zm.62-16.43c.68-.21,2.04-.45,3.24-1.03,2-.97,3-2.74,2.81-4.95-.2-2.31-1.31-4.02-3.68-4.78-2.14-.68-4.19-.59-6.32.1-3.11,1.02-4.13,5.03-2.92,7.25,1.36,2.48,3.56,3.27,6.87,3.42Z"/>
  <path class="cls-1" d="m106.6,233.92h21.76v4.33h-17.17v10.29h15.25v4.36h-14.98c-.47,1.54-.58,7.97-.22,11.06,5.87.2,11.79,0,17.9.12.04.8.09,1.49.11,2.18.02.65,0,1.3,0,1.91-1.45.44-19.84.57-22.54.19-.38-1.38-.51-31.48-.12-34.45Z"/>
  <path class="cls-1" d="m137.66,260.78c1.52-.92,2.68-1.62,3.9-2.35.58.83,1.13,1.56,1.61,2.32,2.76,4.44,9.51,5,12.92,2.97,2.02-1.2,3.23-2.93,2.95-5.3-.26-2.22-2.07-3.23-3.96-3.92-3.07-1.11-6.21-2.02-9.25-3.2-1.31-.51-2.53-1.35-3.63-2.24-1.29-1.05-1.99-2.47-2.24-4.2-.87-5.98,2.45-9.79,7.57-11.03,2.28-.55,4.9-.52,7.19.02,4.15.96,7.2,3.52,8.57,8.06-1.29.46-2.55.91-3.91,1.39-.44-.67-.86-1.24-1.2-1.85-1.95-3.46-7.11-4.93-11.07-2.98-1.8.89-2.64,2.45-2.69,4.45-.04,1.97,1.1,3.21,2.7,3.95,1.59.73,3.32,1.14,4.97,1.75,2.56.95,5.28,1.66,7.62,3,3.32,1.89,4.69,5.57,3.73,9.32-.7,2.72-2.31,4.8-4.74,6.21-5.24,3.05-13.52,2.6-17.98-2.16-1.14-1.21-1.98-2.69-3.08-4.21Z"/>
  <path class="cls-1" d="m343,255.99c1.4.11,2.48.19,3.67.29v3.94c-1.15.09-2.28.18-3.65.28v7.93h-4.28v-8.03h-16.12c-.28-2.38-.39-4.34,1.18-6.37,4.65-6.03,9.13-12.2,13.52-18.43,1.54-2.18,3.4-1.94,5.68-1.58v21.98Zm-4.38-14.81c-.16-.08-.32-.16-.48-.23-3.43,4.99-7.18,9.76-10.76,15.16,4.02.04,7.57.05,11.23,0v-14.92Z"/>
  <path class="cls-1" d="m186.39,268.44h-4.79c0-5.01,0-9.96,0-14.9,0-4.97,0-9.93,0-15.16-3.64-.2-7.21.02-10.98-.13-.04-.75-.08-1.44-.1-2.13-.02-.65,0-1.3,0-1.9,1.45-.5,24.05-.65,27.05-.19.03.65.08,1.34.1,2.03.02.65,0,1.29,0,2.18h-11.27v30.21Z"/>
  <path class="cls-1" d="m239.17,238.14c-.93-.04-1.57-.08-2.21-.1-.64-.01-1.28,0-2.06,0v-4.1h8.42c.4,1.46.53,31.52.15,34.45h-4.3v-30.25Z"/>
  <path class="cls-1" d="m203.34,265.7c.1-1.87,1.09-2.73,3.06-2.64,1.57.06,2.7,1.32,2.65,2.95-.05,1.57-1.54,2.99-3.05,2.92-1.57-.08-2.75-1.5-2.66-3.22Z"/>
</svg>