<?xml version="1.0" encoding="UTF-8"?>
<svg id="Layer_1" data-name="Layer 1" xmlns="http://www.w3.org/2000/svg" viewBox="0 0 416.51 381.77">
  <defs>
    <style>
      .cls-1, .cls-2, .cls-3, .cls-4, .cls-5, .cls-6, .cls-7, .cls-8, .cls-9, .cls-10, .cls-11 {
        stroke-width: 0px;
      }

      .cls-2 {
        fill: #0b60aa;
      }

      .cls-3 {
        fill: #0d63ab;
      }

      .cls-4 {
        fill: #065fa9;
      }

      .cls-5 {
        fill: #065da8;
      }

      .cls-6 {
        fill: #075fa9;
      }

      .cls-7 {
        fill: #075ea9;
      }

      .cls-8 {
        fill: #e4025e;
      }

      .cls-9 {
        fill: #f18c02;
      }

      .cls-10 {
        fill: #025aa6;
      }

      .cls-11 {
        fill: #035aa6;
      }
    </style>
  </defs>
  <g>
    <path class="cls-9" d="m204.4,14.71c1.83-7.72,6.05-13.67,14.96-14.6,8.78-.91,14.35,3.72,17.87,11.25,15.75-6.88,23.6-2.94,26.4,13.01,9.94-.94,15.51,1.96,17.71,9.21,2.56,8.43-1.63,14.26-15.78,21.5,5.95,10.47,15.64,20.18,9.04,33.48-9.41-3.13-18.57-6.17-29.01-9.64.54,5.39,1.11,8.53,1.12,11.68.04,8.16-1.15,16.23-9.38,20.17-8.22,3.94-16.71,3.51-24.17-2.36-11.55-9.1-23.66-17.19-38.39-19.9-6.41-1.18-13.07-1.06-20.54-1.6,2.55,8.31,4.63,15.09,6.56,21.37-10.52-2.09-21.07-4.18-31.63-6.28-.39.77-.77,1.54-1.16,2.3,3.6,9.38,7.19,18.76,11.01,28.72-12.16,10.84-26.96,12.88-42.48,11.91-1.2-.07-3-3.66-3.13-5.7-3.58-54.64,30.34-103.39,82.91-118.85,8.81-2.59,18.06-3.71,28.06-5.69Zm23.9,49.54c-1.55-3.43-4.1-6.58-4.08-9.7.02-3.11,2.61-6.2,4.17-9.52-5.41-1.39-10.32.03-12.15,4.98-1.2,3.25-.5,8.2,1.28,11.28,2.23,3.86,6.68,5.37,10.78,2.97Z"/>
    <path class="cls-8" d="m189.09,245.54c-32.06-6.15-56.78-22.17-75.91-48.86,6.21-1.29,11.47-2.39,16.74-3.48-.02-.39-.04-.78-.06-1.17-7.8-.63-15.6-1.4-23.42-1.84-4.1-.23-6.89-1.48-8.25-5.75-3.22-10.05-6.76-20-10.18-30.02,11.8-1.04,22.56-.71,32.58-3.28,8.42-2.16,16.11-7.47,23.87-11.82,3.38-1.89,3.95-5.09,2.16-8.99-2.55-5.58-4.44-11.45-6.69-17.42,9.09-.13,17.12,3.08,34.7,13.8-3.34-11.17-6.39-21.35-9.43-31.53.4-.62.8-1.23,1.19-1.85,7.24,2.58,14.7,4.67,21.63,7.9,5.6,2.61,10.72,6.37,15.78,10,7.51,5.38,14.39,11.72,22.26,16.48,7.83,4.73,16.53,8.01,25.3,12.14-41.19,22.41-62.71,56.88-62.27,105.71Zm-28.79-91.07c-.49.55-.98,1.11-1.47,1.66,5.73,5.38,6.05,10.87.81,17.34,4.03-.71,8.09-1.63,9.83-4.15,1.54-2.24,1.79-7.18.29-9.26-1.96-2.72-6.2-3.8-9.46-5.59Z"/>
    <path class="cls-10" d="m316.91,89.37c12.27,33.8,9.97,66.2-6.51,98.26,1.8,1.13,3.47,2.2,5.16,3.23,1.57.96,3.15,1.89,4.7,2.81-2.41,8.75-8.63,14.43-17.82,14.45-5.51.01-8.9,2.1-12.39,5.8-3.59,3.8-7.83,6.98-12.5,10.19,5.12-10.9,4.75-21.01-3.11-30.03-4.53-5.2-10-8.95-18.42-7.47,8.48,3.87,14.08,9.65,16.31,18.03,2.25,8.47,1.09,16.64-4.33,23.7-2.05,2.67-4.73,5.25-7.68,6.77-16.73,8.6-34.61,12.41-53.83,12.19-.39-2.34-.76-4.5-1.19-7.06-2.41-.2-4.85-.4-7.92-.65-.03-26.03,7.8-48.73,25.15-67.86,14.14-15.59,31.99-25.57,51.44-32.93,15.43-5.84,29.85-13.01,36.62-29.43,2.52-6.12,4.04-12.64,6.34-20Zm-89.56,116.08c.31.84.61,1.68.92,2.51,9.28,1.31,10.74,2.74,10.3,11.04,4.38-1.98,7.03-5.29,5.76-9.07-1.07-3.17-4.36-6.81-7.42-7.7-2.64-.78-6.33,2.01-9.55,3.22Z"/>
    <path class="cls-5" d="m107.92,306.92v21.55h-14.64v-61.49c14.42.91,29.04-3.11,41.68,7.64,12.16-12.89,25.67-10.56,39.54-3.02,5.4-10.37,38-5.12,46.9,7.95,9.14-10.5,20.81-14.93,34.47-13.83,12.72,1.02,13.48,2.2,12.4,15.49-6.28-1.11-12.61-3.21-18.91-3.1-9.05.16-16.02,6.89-18.15,15.46-1.93,7.75,1.49,16.56,8.28,21.33,6.67,4.69,18.68,4.98,24.91.31,1.55-1.16,2.68-3.12,3.53-4.94,5.46-11.7,10.76-23.47,16.16-35.2q4.6-10,16.18-9.24c9.2,20.55,18.49,41.31,28.22,63.05-5.01,0-9.18.5-13.12-.21-1.92-.35-4.4-2.68-4.94-4.59-1.97-7.07-6.26-9.5-13.22-8.3-1.57.27-3.28.28-4.84,0-7.93-1.43-13.22,1.11-15.41,9.32-.39,1.46-2.2,3.46-3.53,3.6-8.47.88-17.06,2.32-25.47,1.68-17.37-1.32-27.91-10.89-32.61-27.2-8.09,1.22-16.06,2.43-24.76,3.75v21.61h-14.07c-.4-2.36-.81-4.77-1.33-7.78-8.93,9.81-19.88,8.57-31.67,9.26-17,1-24.23-8.47-31.65-20.02-.73-1.14-1.64-2.15-2.47-3.23-.49.06-.99.11-1.48.17Zm31.02,4.43c2.88,2.49,5.05,4.98,7.75,6.56,5.53,3.25,12.16,1.57,14.46-3.2,2.4-4.97,0-9.05-6.94-11.89-6.12-2.5-12.22-5.05-17.87-7.4-3.96,2.8-8.01,5.66-12.32,8.72,2.8,3.45,5.82,7.17,8.94,11.02,2.19-1.4,4.1-2.61,5.99-3.82Zm30.13-31.36c-4.63-1.37-8.49-3.46-12.27-3.33-2.78.09-5.46,3.09-8.19,4.79,1.85,2.48,3.17,5.95,5.64,7.26,6.76,3.58,14,6.26,21.13,9.33v-25.06c-2.8,3.11-4.72,5.25-6.31,7.01Zm21.72,17.51c5.52-2.24,10.66-3.19,13.99-6.16,1.7-1.51,1.56-8.41-.19-9.79-3.45-2.73-8.59-3.31-13.8-5.04v20.98Zm-82.51-.39c5.5-2.58,10.19-3.82,13.38-6.71,1.47-1.33,1.25-7.39-.33-8.67-3.28-2.66-7.99-3.56-13.05-5.56v20.93Zm177.66,8.18h16.35c-2.9-6.96-5.5-13.21-8.72-20.96-2.9,7.96-5.2,14.3-7.62,20.96Z"/>
    <path class="cls-11" d="m230.54,121.22c17.86-3.43,23.78-15.11,24.19-32.91,8.01,4.89,14.91,9.1,22.02,13.44,12.04-13.38,9.82-28.13.74-42.74,4.24-3.46,8.13-6.64,12.42-10.14,18.49,11.77,24.9,40.17,12.07,60.83-14.06,22.64-43.56,27.67-71.43,11.51Z"/>
    <path class="cls-11" d="m289.12,380.39c-11.08.16-22.17.51-33.24.3-1.97-.04-4.37-2.07-5.76-3.82-3.25-4.09-6.02-8.57-10.45-12.56v16.15h-10.03v-41.21c6.17,0,12.66-.81,18.86.19,9.56,1.54,14.09,14.73,3.88,22.9,1.66,2.4,3.32,4.83,5.02,7.24,1.71,2.44,3.44,4.86,6.08,8.58v-38.69h24.13v7.85h-13.31v7.41c3.5.22,6.87.44,10.57.68v8.78h-10.68v7.61c4.99.38,9.97.76,14.95,1.14,0,2.49,0,4.98,0,7.46Zm-47.82-34.28c-.59.49-1.18.97-1.77,1.46v10.15c3.45-2.27,5.83-3.83,8.21-5.39-2.15-2.07-4.29-4.15-6.44-6.22Z"/>
    <path class="cls-2" d="m289.12,380.39c0-2.49,0-4.98,0-7.46.64-2.25,1.79-4.48,1.85-6.74.22-8.76.09-17.52.09-26.57,7.55,0,14.78-1.04,21.57.24,10.48,1.98,16.44,11.64,15.37,22.37-1,10.04-9.05,17.69-20.19,18.44-6.19.41-12.46-.16-18.69-.28Zm12.85-8.58c10.19.39,15.48-3.99,15.3-12.42-.17-8.07-5.55-12.17-15.3-11.44v23.85Z"/>
    <path class="cls-3" d="m189.72,339.06h10.56c0,8.2.07,16.2-.03,24.21-.07,5.51,2.15,9.18,7.92,9.1,5.38-.07,7.56-3.53,7.48-8.78-.12-7.86-.03-15.72-.03-24.17h9.88c0,10.06.78,20.41-.25,30.57-.79,7.8-9.34,12.35-18.71,11.73-9.66-.63-16.25-5.87-16.71-14.34-.5-9.2-.11-18.45-.11-28.32Z"/>
    <path class="cls-4" d="m129.22,376.39c-.1,1.27-.21,2.54-.33,4.04-5.64,1.05-10.66,1.74-12.52-6.11-.36-1.52-5.16-2.67-7.94-2.71-2.22-.04-6.14,1.53-6.42,2.95-1.41,7.26-6.21,6.78-12.38,5.91,2.34-6.25,4.56-12.34,6.89-18.4,2.56-6.66,5.03-13.37,7.97-19.87.75-1.66,3.18-3.72,4.68-3.6,1.93.16,4.61,1.93,5.37,3.69,4.27,9.94,8.02,20.1,12.07,30.14.6,1.5,1.82,2.75,2.75,4.12,0,0-.13-.17-.13-.17Z"/>
    <path class="cls-7" d="m129.35,376.56v-6.99c4.26,1.04,8.1,2.43,12.02,2.72,1.78.13,3.72-1.93,5.59-2.99-1.29-1.64-2.47-3.39-3.92-4.87-.56-.57-1.74-.5-2.6-.82-9.05-3.46-12.81-10.93-9.28-18.39,3.06-6.47,14.69-9.99,21.21-5.62,1.74,1.16,1.35,5.5,2.01,8.76-2.15,0-2.57-.03-2.99,0-3.57.3-7.14.61-10.71.92,2.6,2.03,4.94,4.58,7.84,5.98,7.64,3.68,10.45,8.61,8.73,16.66-1.24,5.82-5.99,9.6-13.62,8.98-4.89-.39-9.61-2.93-14.41-4.51,0,0,.13.17.13.17Z"/>
    <path class="cls-6" d="m159.94,370.05c4.48.86,8.46,2.01,12.48,2.2,1.36.07,3.47-2.05,4.01-3.6.31-.89-1.55-3.04-2.9-3.91-1.68-1.09-3.9-1.31-5.78-2.15-6.01-2.68-8.64-7.41-7.76-13.9.83-6.08,4.82-9.61,10.56-10.19,4.56-.46,9.27.54,14.43.92-.82,3.84-1.34,6.23-1.91,8.87-3.05-.42-5.93-1.2-8.78-1.06-1.42.07-2.75,1.8-4.13,2.78.99,1.13,1.77,2.64,3,3.3,2.41,1.3,5.21,1.87,7.62,3.18,5.8,3.17,7.84,8.42,6.55,14.63-1.27,6.08-5.45,9.41-11.72,9.86-1.84.13-3.69.18-5.53.11-9.03-.36-10.25-1.71-10.16-11.05Z"/>
  </g>
  <rect class="cls-1" y="159.55" width="16.35" height="16.35"/>
  <rect class="cls-1" x="400.15" y="159.55" width="16.35" height="16.35"/>
</svg>