<?xml version="1.0" encoding="UTF-8"?>
<svg id="Layer_1" data-name="Layer 1" xmlns="http://www.w3.org/2000/svg" viewBox="0 0 800.56 228.73">
  <defs>
    <style>
      .cls-1 {
        fill: #37a836;
        stroke: #fff;
        stroke-width: 2px;
      }

      .cls-1, .cls-2 {
        stroke-miterlimit: 10;
      }

      .cls-3 {
        font-family: Poppins-Medium, Poppins;
        font-size: 43.6px;
        font-weight: 500;
      }

      .cls-3, .cls-4 {
        fill: #fff;
      }

      .cls-2 {
        fill: none;
        stroke: #e32521;
        stroke-width: 9px;
      }

      .cls-5 {
        fill: #e32521;
      }

      .cls-5, .cls-4 {
        stroke-width: 0px;
      }
    </style>
  </defs>
  <g>
    <circle class="cls-4" cx="402.82" cy="82.95" r="60.95"/>
    <g>
      <circle class="cls-2" cx="402.56" cy="82.95" r="49.89"/>
      <path class="cls-5" d="m371.28,63.54c3.15-5.7,7.54-10.14,13.17-13.33,5.63-3.18,12.02-4.77,19.15-4.77,8.74,0,16.23,2.31,22.46,6.93,6.23,4.62,10.39,10.91,12.49,18.89h-19.73c-1.47-3.08-3.55-5.42-6.24-7.03-2.69-1.61-5.76-2.41-9.18-2.41-5.53,0-10.01,1.93-13.43,5.77-3.43,3.85-5.14,8.99-5.14,15.43s1.71,11.58,5.14,15.43c3.43,3.85,7.91,5.77,13.43,5.77,3.43,0,6.49-.8,9.18-2.41,2.69-1.61,4.78-3.95,6.24-7.03h19.73c-2.1,7.98-6.26,14.26-12.49,18.84-6.23,4.58-13.71,6.87-22.46,6.87-7.14,0-13.52-1.59-19.15-4.78-5.63-3.18-10.02-7.61-13.17-13.28-3.15-5.67-4.72-12.14-4.72-19.41s1.57-13.76,4.72-19.47Z"/>
      <path class="cls-1" d="m425.62,90.8c.29-.39.5-.61.63-.86,2.46-4.49,5.37-8.78,8.68-12.88,9.32-11.56,20.84-21.36,35-29,2.22-1.2,4.62-2.18,6.98-3.21.59-.26,1.3-.38,1.97-.47.65-.08.89.23.59.71-.23.36-.5.72-.84,1.01-3.21,2.72-6.41,5.44-9.67,8.12-8.6,7.1-16.64,14.59-23.6,22.82-6.86,8.12-12.38,16.8-16.53,26.07-.83,1.86-1.72,3.7-2.59,5.55-.1.21-.23.41-.43.78-.4-1.02-.75-1.88-1.09-2.74-1.93-4.92-3.83-9.85-6.62-14.51-3.73-6.22-8.71-11.71-14.54-16.71-.8-.69-1.58-1.4-2.28-2.16-.28-.3-.32-.73-.47-1.11.47-.02.97-.14,1.4-.04,2.59.63,4.86,1.8,7.04,3.06,6.23,3.6,11.2,8.15,15.05,13.53.43.61.81,1.24,1.31,2.02Z"/>
    </g>
  </g>
  <text class="cls-3" transform="translate(216.53 200.35)"><tspan x="0" y="0">Chicken Checker</tspan></text>
</svg>