<?xml version="1.0" encoding="UTF-8"?>
<svg id="Layer_1" data-name="Layer 1" xmlns="http://www.w3.org/2000/svg" viewBox="0 0 36.47 39.56">
  <defs>
    <style>
      .cls-1 {
        fill: #fff;
        stroke-width: 0px;
      }
    </style>
  </defs>
  <path class="cls-1" d="m32.17,9.19c-.37-.14-.85-.2-1.06-.47-.12-.16.16-.69.35-.99.26-.42.61-.78,1.03-1.3-1.6.09-2.61.62-3.18,2.02-1.44,3.51-3.68,6.28-7.46,7.46-3.41,1.07-5.29.47-7.28-2.5-1.21-1.82-2.29-3.74-3.33-5.67-.82-1.52-2.01-2.41-3.68-2.82-1.36-.34-2.46-.08-3.4.95-.36.39-.76.74-1.28,1.23.36.04.54.07.71.07,2,.06,2.45.33,2.53,2.33.06,1.46-.26,2.95-.53,4.4-.44,2.38-1.11,4.73-.72,7.2.76,4.8,3.69,7.63,8.17,9.02.96.3,1.67.66,2.03,1.68.2.57.63,1.09,1.07,1.52,1.03,1.03,2.61.85,3.27-.44.4-.78.91-1.03,1.7-1.17,2.29-.41,4.46-1.17,6.42-2.48,2.1-1.41,3.12-3.42,3.43-5.88.07-.58.35-1.16.63-1.69.67-1.28,1.37-2.54,2.12-3.78.2-.33.62-.53.94-.79.09.43.39.97.23,1.28-1.37,2.78-2.7,5.55-3.65,8.54-.41,1.29-1.69,2.47-2.86,3.29-1.38.98-3.02,1.63-4.63,2.23-1.42.53-3.09.5-3.95,2.1-.1.18-.38.27-.58.38-1.25.66-1.4,1.76-.44,2.85.37.42,1.27.81.64,1.5-.72.79-1.07-.28-1.6-.53-.37-.17-.86-.3-1.24-.21-.95.23-1.85.64-2.8.87-.32.07-.71-.2-1.08-.32.22-.3.38-.76.67-.89.86-.38,1.79-.57,2.65-.95.34-.15.79-.58.79-.89,0-.44-.28-.95-.58-1.31-.74-.88-1.55-1.71-2.36-2.54-.41-.41-.83-.95-1.35-1.11-7.6-2.38-10.08-8.85-8.76-15.27.32-1.53.65-3.06.99-4.66-1.47-.41-2.37-1.26-2.27-2.97-.64,0-1.22.05-1.79-.02-.26-.03-.57-.27-.68-.5-.08-.16.09-.6.27-.68,2.04-1.03,2.65-2.92,3.28-4.93C4.13.53,5.43-.34,6.77.12c1.36.46,2.6,1.19,4.08,1.48,1.04.2,1.32,1.43.87,2.45-.44,1-.18,1.72.37,2.57,1.15,1.82,2.14,3.74,3.28,5.56,1.73,2.75,2.96,3.75,7.15,2.01,2.81-1.17,4.4-3.56,5.56-6.25.97-2.26,4.18-3.7,6.49-2.86.69.25.7.73.12,1.32-.89.91-1.72,1.88-2.57,2.82l.03-.04ZM4.44,3.61c2.15-.74,3.89.15,5.84.84.06-.57.31-1.21.1-1.47-.22-.27-.92-.32-1.34-.21-.76.19-1.14-.1-1.55-.68-.73-1.02-1.53-1.02-2.24,0-.32.46-.54,1-.8,1.51Z"/>
  <path class="cls-1" d="m22.19,26.89c-.12-.45-.17-.71-.25-.97-.26-.79.09-1.07.85-1.11.74-.04,1.49-.08,2.21-.23,2.15-.45,3.63-1.7,4.48-3.75.15-.37.64-.61.98-.91.08.47.36,1.01.22,1.4-.91,2.53-2.81,3.97-5.37,4.59-.56.14-1.14.21-1.71.32.35,2.12.17,2.3-1.98,1.92-3.41-.61-6.33-2.25-8.91-4.48-1.94-1.68-1.88-4.53.01-6.23.22-.2.67-.16,1.01-.23-.01.37.11.84-.06,1.1-1.56,2.33-1.4,3.45.87,5.11,2.25,1.65,4.66,2.98,7.67,3.46Z"/>
  <path class="cls-1" d="m32.13,9.23c1.06-.21,2.11-.47,3.18-.61.37-.05.77.22,1.16.34-.12.38-.18.8-.38,1.13-.27.46-.66.86-.95,1.23.47.16.91.31,1.34.45-.18.43-.3.9-.55,1.3-.68,1.09-1.39,2.17-2.14,3.21-.21.29-.61.43-.93.64-.09-.4-.35-.87-.23-1.19.3-.79.77-1.52,1.13-2.18-.44-.18-.89-.37-1.33-.55.21-.43.38-.9.64-1.3.31-.48.71-.91,1.19-1.52-1.47.22-2.37.96-3.24,1.82-.27.26-.76.29-1.15.42.05-.44-.05-1.01.19-1.29.62-.71,1.39-1.3,2.1-1.93,0,0-.03.04-.03.04Z"/>
</svg>