<?xml version="1.0" encoding="UTF-8"?>
<svg id="Layer_1" data-name="Layer 1" xmlns="http://www.w3.org/2000/svg" viewBox="0 0 186.66 202.19">
  <defs>
    <style>
      .cls-1 {
        fill: #fff;
        stroke: #fff;
        stroke-miterlimit: 10;
      }
    </style>
  </defs>
  <path class="cls-1" d="m164.09,47.25c-1.87-.73-4.35-1.01-5.38-2.38-.61-.8.83-3.5,1.81-5.06,1.33-2.12,3.1-3.96,5.26-6.63-8.15.48-13.28,3.16-16.19,10.27-7.31,17.87-18.73,31.92-37.94,37.96-17.33,5.45-26.92,2.37-37-12.73-6.18-9.26-11.64-19.03-16.93-28.83-4.18-7.74-10.23-12.25-18.7-14.36-6.93-1.73-12.51-.43-17.3,4.83-1.81,1.99-3.89,3.74-6.52,6.25,1.84.2,2.73.35,3.63.38,10.18.31,12.48,1.69,12.88,11.88.29,7.42-1.33,14.98-2.68,22.38-2.21,12.13-5.65,24.05-3.66,36.63,3.85,24.43,18.76,38.83,41.56,45.9,4.9,1.52,8.51,3.37,10.33,8.55,1.01,2.88,3.23,5.53,5.45,7.74,5.26,5.22,13.29,4.34,16.64-2.21,2.02-3.96,4.64-5.23,8.63-5.94,11.66-2.07,22.69-5.96,32.64-12.61,10.7-7.16,15.87-17.4,17.47-29.92.38-2.96,1.77-5.91,3.19-8.6,3.41-6.5,6.97-12.94,10.78-19.21,1.03-1.69,3.16-2.71,4.79-4.03.45,2.2,1.97,4.93,1.18,6.53-6.97,14.15-13.74,28.24-18.57,43.42-2.08,6.54-8.6,12.54-14.54,16.76-7.01,4.97-15.38,8.27-23.52,11.32-7.23,2.71-15.73,2.56-20.1,10.68-.49.91-1.92,1.37-2.97,1.92-6.35,3.36-7.12,8.96-2.22,14.5,1.89,2.13,6.45,4.13,3.24,7.62-3.68,4.01-5.45-1.44-8.15-2.71-1.89-.89-4.38-1.52-6.32-1.05-4.82,1.16-9.41,3.28-14.23,4.43-1.6.38-3.63-1.03-5.47-1.62,1.12-1.55,1.91-3.84,3.42-4.51,4.35-1.92,9.11-2.92,13.47-4.83,1.75-.77,4-2.97,4-4.52,0-2.24-1.41-4.83-2.95-6.66-3.77-4.49-7.88-8.72-12.02-12.9-2.09-2.11-4.23-4.82-6.85-5.64-38.66-12.08-51.26-45-44.53-77.64,1.61-7.78,3.3-15.55,5.05-23.72-7.48-2.08-12.06-6.4-11.57-15.09-3.24,0-6.22.26-9.11-.12-1.3-.17-2.92-1.38-3.48-2.55-.38-.8.48-3.03,1.36-3.47,10.38-5.25,13.48-14.86,16.66-25.1C21.51,3.21,28.1-1.2,34.95,1.1c6.94,2.34,13.23,6.06,20.76,7.53,5.29,1.03,6.73,7.29,4.44,12.47-2.24,5.07-.9,8.75,1.86,13.09,5.87,9.23,10.87,19.02,16.69,28.29,8.8,14.01,15.04,19.08,36.38,10.22,14.29-5.93,22.4-18.08,28.28-31.78,4.94-11.49,21.25-18.8,33.03-14.56,3.51,1.26,3.55,3.71.61,6.73-4.51,4.64-8.74,9.55-13.09,14.34l.17-.18ZM23.08,18.85c10.93-3.77,19.78.78,29.68,4.3.3-2.92,1.57-6.13.5-7.46-1.1-1.36-4.66-1.61-6.82-1.06-3.87.97-5.81-.51-7.9-3.44-3.72-5.21-7.78-5.17-11.4-.01-1.65,2.35-2.73,5.1-4.06,7.67Z"/>
  <path class="cls-1" d="m113.36,137.25c-.59-2.28-.86-3.62-1.28-4.91-1.32-4.03.48-5.45,4.32-5.65,3.76-.19,7.56-.4,11.23-1.17,10.91-2.29,18.46-8.65,22.78-19.06.79-1.9,3.26-3.09,4.96-4.61.43,2.39,1.84,5.13,1.13,7.11-4.63,12.86-14.27,20.2-27.33,23.33-2.87.69-5.81,1.09-8.71,1.62,1.79,10.77.85,11.7-10.05,9.76-17.36-3.09-32.21-11.44-45.33-22.76-9.87-8.53-9.56-23.02.06-31.7,1.13-1.02,3.39-.8,5.12-1.15-.07,1.89.57,4.26-.32,5.6-7.95,11.85-7.12,17.54,4.4,25.99,11.46,8.41,23.7,15.14,39.02,17.61Z"/>
  <path class="cls-1" d="m163.92,47.43c5.38-1.08,10.73-2.41,16.17-3.11,1.86-.24,3.92,1.1,5.89,1.72-.62,1.93-.92,4.05-1.93,5.74-1.4,2.34-3.33,4.37-4.84,6.28,2.41.82,4.61,1.56,6.8,2.3-.91,2.21-1.54,4.6-2.79,6.6-3.46,5.55-7.05,11.03-10.87,16.33-1.06,1.47-3.12,2.2-4.73,3.28-.44-2.04-1.77-4.42-1.15-6.06,1.51-4.03,3.93-7.73,5.74-11.11-2.26-.93-4.51-1.87-6.76-2.8,1.07-2.21,1.93-4.56,3.26-6.6,1.6-2.45,3.6-4.64,6.07-7.74-7.48,1.1-12.06,4.89-16.49,9.25-1.35,1.33-3.88,1.47-5.87,2.16.28-2.24-.24-5.16.99-6.57,3.15-3.64,7.08-6.6,10.7-9.84,0,0-.17.18-.17.18Z"/>
</svg>