<?xml version="1.0" encoding="UTF-8"?>
<svg id="Layer_1" data-name="Layer 1" xmlns="http://www.w3.org/2000/svg" viewBox="0 0 420.95 421.5">
  <defs>
    <style>
      .cls-1 {
        fill: #fff;
        font-family: Poppins-Regular, Poppins;
        font-size: 33.07px;
      }

      .cls-2 {
        fill: none;
        stroke: #37a836;
        stroke-miterlimit: 10;
      }

      .cls-3 {
        fill: #37a836;
      }

      .cls-3, .cls-4 {
        stroke-width: 0px;
      }

      .cls-4 {
        fill: #e32521;
      }
    </style>
  </defs>
  <g>
    <path class="cls-4" d="m45.9,51.58c-.35-2.04-1.65-4.34,1.86-5.26.34-.09.44-1.08.58-1.67.54-2.29,1.17-4.57,1.56-6.89.48-2.93,2.38-4.54,5.19-5.57,3.27-1.2,4.43-.9,6.22,1.94,1.2-.31,2.43-.63,4.22-1.1-1.46-1.07-2.49-1.89-3.6-2.61-3.46-2.28-3.39-4.17.24-6.31.78-.46,1.55-.93,2.51-1.52-.63-.55-1.21-.87-1.5-1.35-.33-.55-.78-1.49-.53-1.8.41-.49,1.36-.85,2.07-.83,1.44.04,2.87.36,4.46.59-.05-.76,0-1.11-.1-1.43-2.02-6.43.02-12.22,5.78-16.31,3.54-2.52,5.81-1.76,7.07,2.22.2.64,1.11,1.48,1.77,1.55,3.34.33,6.71.49,10.07.59.8.02,1.84-.18,2.38-.65,2.94-2.58,6.24-2.01,9.5-.99,4.79,1.49,9.29,1.26,13.85-.89,2.73-1.29,5.71-2.19,8.67-2.97,2.53-.67,3.54.12,2.99,2.44-.56,2.37-1.74,4.61-2.74,7.13,2.72,2.36,2.98,4.06.26,7.42-1.85,2.29-4.11,4.29-6.09,6.49-1.74,1.92-3.22,4.07-5.08,5.88-1.51,1.47-3.31,2.76-5.2,3.8-1.5.83-3.3,1.22-4.99,1.72-2.04.6-2.6,1.62-1.12,3.19,1.3,1.39.73,2.27-.66,3.18-1.15.75-2.27,1.57-3.22,2.52-.44.45-.75,1.34-.6,1.91.53,2.04-.51,3.28-2.08,4.46-.95.71-1.72,1.64-2.3,2.88,3.16-1.74,7.58-.03,9.97-3.5.17-.24.65-.39,1-.41,2.77-.19,4.88-1.17,6.23-3.61.33-.6,1.76-.94,2.69-.96,4.86-.13,9.68-.29,14.35,1.65,1.4.58,3.42-.12,5.57-.26-3.71-4.74-.66-8.26,1.82-11.82,1.53-2.19,3.91-.74,5.72-.59,2.73.23,5.46,1.15,8.05,2.08,2.83,1.01,3.23,2.72,1.78,5.22-2.17,3.73-5.04,6.02-9.98,4.76-.86-.22-1.83-.03-2.76-.03-.05.26-.09.52-.14.78,1.69.25,3.4.78,5.07.69,3.92-.23,7.81-.95,11.73-1.13,6.36-.28,8.07,1.35,8.1,7.18.02,3.13,0,6.27-.04,9.4-.09,5.26-1.97,9.87-5.97,13.67-1.44,1.37-2.75,2.91-4.4,4.03-2.81,1.9-3.65,4.16-3.78,7.44-.2,5.08-4.68,7.97-8.52,11-1.51,1.2-3.26,2.36-4.22,3.9-3.06,4.9-7.83,7.3-13.45,8.65-.89.21-1.77.42-2.66.63.08.27.16.54.24.81,1.89-.54,3.75-1.23,5.69-1.59,3.15-.59,6.34-1.09,9.54-1.28.43-.03.99,1.93,1.69,3.39.03,0,.76.06,1.48.16,2.37.33,3.37,1.59,2.47,3.64-1.27,2.9-2.52,5.68-2.46,8.98.02,1.02-2.23,2.89-3.54,2.97-4.63.28-9.31.07-13.96-.18-4.82-.26-9.63-.79-14.44-1.2-.15.38-.3.77-.44,1.15,1.06.59,2.05,1.52,3.2,1.73,11.58,2.1,23.22,2.88,34.86.39,3.82-.82,6.49-.17,8.4,3.04,3.77,6.34,9.34,10.68,16.07,14.17,2.17,1.12,4,3.48,5.03,5.67,1.68,3.55,2.63,7.41,3.77,11.16,1.04,3.4,2.49,6.52,5.46,8.92,2.26,1.83,2.66,4.22,1.31,6.64-1.7,3.05-.81,5.52,1.53,7.82,3.47,3.42,7.06,6.55,12.71,6.11.88-.07,1.94.19,2.68.63,3.96,2.37,8,4.66,11.71,7.33,2.96,2.13,4.61,5.18,5.1,8.73.13.98.8,1.89,1.24,2.83,1.16,2.5,2.22,5.05,3.53,7.49.73,1.36,1.66,2.77,2.88,3.73,3.57,2.81,4.24,6.66,4.75,10.55.31,2.36-1.53,3.47-3.98,2.68-.6-.19-1.17-.44-1.95-.74.62,2.53,2.14,4,4.5,4.94,1.8.71,3.5,1.66,5.18,2.59,2.79,1.54,4.2,3.78,4.25,6.88.02,1.33.51,2.76,1.21,3.93.99,1.66,1.08,3.16-.09,4.63-1.78,2.23-3.53,4.5-5.59,6.49-1.42,1.37-1.69,2.35-.16,3.67,2.26,1.97,4.47,3.99,6.7,5.99l.64-.54c0-.5.07-1.02-.01-1.51-1.03-6,3.57-10.03,9.74-7.86,4.01,1.41,7.7,1.19,11.54.5,7.88-1.43,14.81.83,21.39,4.47,3.58,1.98,5.08,4.98,4.27,8.87-.34,1.62-.71,3.24-.85,4.88-.08.9-.04,2.08.5,2.72,1.74,2.03,1.74,4.26.95,6.43-3.43,9.54-6.84,19.09-10.61,28.52-1.54,3.84-2.78,4.11-7.23,3.65-1.58-.16-3.17-.27-4.76-.39-1.98-.16-2.47.83-2.17,2.43.07.34.13.7.3,1,2.55,4.46.67,7.98-2.66,11.25-.83.81-1.71,1.73-2.08,2.76-.41,1.12-.74,2.67-.2,3.57.44.72,2.27,1.15,3.38,1.02,3.33-.41,6.61-1.17,9.92-1.78,1.56-.29,3.12-.62,4.7-.77,1.9-.17,3.24.49,3.4,2.19-4.63.87-9.17,1.73-13.72,2.59-1.28.24-2.57.5-3.86.69-2.72.4-5.02-.24-6.62-2.46-1.56-2.18-1.1-4.35.31-6.35,1.38-1.96,2.96-3.8,4.49-5.67,1.09-1.33,1.68-2.69.69-4.29-.05-.07-.07-.16-.1-.24-2.24-6.05-.98-9.44,7.07-8.62,6.1.63,5.32,1.69,7.8-4.5,3.36-8.37,6.21-16.91,9.08-25.44.38-1.12-.38-2.57-.63-3.86-.33-1.76-.83-3.51-.94-5.28-.07-1.09.47-2.2.72-3.31.94-4.18-.52-6.05-4.5-8.15-6.67-3.51-13.5-4.03-20.9-2.77-2.77.47-5.92-.19-8.73-.9-4.75-1.19-7.13.51-6.78,5.04.1,1.28-.34,3.41-1.2,3.77-1.35.56-3.72.51-4.85-.28-2.9-2.01-5.46-4.47-7.94-6.94-1.24-1.23-.34-4.13,1.33-5.68,1.25-1.16,2.42-2.4,3.59-3.63,1.83-1.92,3.18-3.86,1.08-6.43-.5-.62-.57-1.67-.54-2.52.12-3.26-1.8-5.08-4.73-6.42-3.4-1.55-6.86-2.87-8.92-6.37-.8-1.35-3.59-1.99-5.6-2.33-2.84-.48-5.79-.35-8.69-.54-1.82-.12-3.81-.35-4.1-2.42-.29-2.11,1.7-2.71,3.36-3.28,3.22-1.12,6.4-1.07,9.88-.55,4.07.6,7.38,2.01,10.49,4.95-.2-3.97-1.13-6.99-4.2-9.25-2.05-1.5-2.53-3.79-3.43-6.02-2.16-5.34-4.9-10.54-8-15.47-1.06-1.68-3.89-2.39-5.88-3.59-.93-.56-1.93-1.09-2.65-1.84-1.8-1.89-3.97-2.74-6.67-2.82-5.84-.16-14.36-6.22-15.63-11.43-.44-1.8.2-3.92.75-5.79.47-1.64.79-3.03-.83-4.22-3.26-2.39-4.72-5.76-5.84-9.3-.95-3-1.82-6.02-2.74-9.03-1.13-3.69-3.26-6.41-7.31-8.01-2.28-.91-4.05-2.91-6.03-4.44-.36-.27-.57-.77-.96-.93-3.64-1.47-5.3-4.47-7.04-7.49-1.81-3.13-2.72-3.27-6.34-2.58-11.93,2.27-23.83,1.87-35.69-.6-.54-.11-1.07-.31-1.59-.52-2.31-.91-4.23-2.22-3.76-4.85.46-2.59,2.99-2.85,5.06-2.76,4.76.19,9.51.83,14.27,1.16,3.54.25,7.09.37,10.64.4,1.68.01,2.41-.63,2.47-2.59.08-2.59,1.18-5.16,1.88-7.89-1.45-.07-3.11-.07-4.76-.23-2.63-.27-2.97-.86-1.76-3.67-1.6.6-2.93.91-4.04,1.56-3.32,1.96-6.85,1.55-10.3.76-2.11-.48-2.5-2.44-.91-3.85.76-.68,1.85-1.14,2.88-1.45,2.04-.62,4.21-.89,6.2-1.62,1.8-.66,4.14-1.34,5.02-2.69,3.89-5.97,10.76-9.25,14.94-14.84.81-1.08,1.07-2.8.92-4.15-.28-2.39.17-4.32,2.33-5.73,9.41-6.16,12.87-14.59,11.95-25.12-.57-6.51-.69-7-7.72-6.08-2.69.35-5.38.72-8.08.99-1.2.12-2.55.32-3.62-.04-3.91-1.3-7.77-1.68-11.78-.42-.54.17-1.39,0-1.87-.31-3.97-2.59-8.5-1.6-12.82-1.66-.84-.01-1.66,1.34-2.58,1.95-1.11.74-2.29,1.41-3.49,2.02-1,.51-2.06.91-3.1,1.36-1.16.5-2.28,1.28-3.5,1.46-3.9.56-7.26,1.99-10.41,4.22-2.43,1.72-5.21,3.08-7.99,4.28-.91.39-2.33-.24-3.51-.4.33-1.07.3-2.48,1.04-3.14,2.02-1.79,4.47-3.16,6.56-4.89,1.53-1.26,2.57-3.05,4.17-4.19,2.45-1.75,4-3.67,3.56-6.7-.06-.39.74-.96,1.24-1.33,1.98-1.47,3.97-2.81,2.57-5.73-.29-.61.68-1.82,1.22-2.67.26-.4.87-.75,1.38-.85,10.58-2.08,14.3-11.34,21.1-17.37,1.55-1.37,1.98-2.81-.47-4.09-1.69-.89-1.74-2.33-.42-3.75.85-.92,1.65-1.89,2.38-2.89.28-.39.31-.94.63-2-3.28,1.21-6.19,2.1-8.91,3.34-4.29,1.95-8.59,2.12-13.09.82-3.13-.9-5.88-1.02-9.3.48-5.18,2.27-11.07,1.47-16.38-.61-1.19-.47-1.66-2.52-2.5-3.9-4.63,1.64-8.17,8.31-6.47,12.8,1.52,4,.73,5.28-2.62,5.96-2.39,2.25-4.09,3.85-5.93,5.58,1.15,2.42,8.34,3.19,3.7,7.88-2.73,2.75-7.16,1.89-9.05-.91-3.17.5-4.76,2.31-5.25,5.21-.55,3.26-.56,6.82-2.07,9.67-2.4,4.54.43,7.85,1.81,11.57.56,1.51,1.6,2.42,3.57,2.3,1.06-.07,2.26.24,3.23.68,1.68.77,1.98,2.87.3,3.84-2.03,1.17-1.7,2.55-1.48,4.2.5,3.75,0,4.2-4.17,4.03-.6,1.49,2.07,3.98-.93,4.52-1.47.27-3.31-1.18-5.01-1.87-1.19,2.51-2.33,4.93-3.55,7.52.21.05.73.09,1.16.29,1.18.56,3.07,1.02,3.29,1.85.29,1.05-.41,2.91-1.36,3.53-1.74,1.15-3.96,1.7-6.02,2.42-2.92,1.01-5.87,1.94-9.21,3.03,2.01,1.84,5.29,2.16,3.71,4.82,1.16,1.27,2.18,2.37,3.2,3.48-1.02.74-2.04,1.48-3.1,2.25-.37,1.33-.82,2.95-1.29,4.66,2.42-.13,5.49.25,8.08-.61,2-.67,3.46-2.84,4.99-4.48.2-.22-.44-1.44-.99-1.88-1.78-1.41-3.73-2.63-5.55-3.99-.94-.7-1.91-1.45-2.58-2.36-.4-.54-.56-1.61-.24-2.1.32-.48,1.5-.88,2.12-.71,2.69.72,5.42,1.45,7.92,2.57,2.46,1.11,4.2.74,5.83-1.15.76-.88,1.54-1.87,2.56-2.39,1.25-.65,3.03-1.51,4.1-1.12,1.94.71,1.75,2.64,1.1,4.31-.54,1.38-1.16,2.73-1.84,4.31,1.74.68,3.48,1.12,4.89,2.01,1,.63,1.55,1.88,2.3,2.86-1.2.44-2.39,1.21-3.6,1.26-1.75.06-3.51-.49-5.27-.63-3.29-.26-4.52.63-4.79,3.68-.19,2.16-.16,4.35-.02,6.52.15,2.38-.73,4.2-2.71,5.7-1,.76-1.96,1.64-2.68,2.63-.81,1.11-.7,2.04.27,3.42,1.45,2.07,1.97,4.7,3.06,7.55-.15-.01.48-.07,1.04.09,1.62.46,1.83,1.34.71,2.5-.18.19-.41.39-.67.47-4.75,1.56-6.11,5.57-7.58,9.34-.62,1.59-.53,3.48-.45,5.22.09,1.8.55,3.58.86,5.4,1.4-.58,2.83-1.18,3.83-1.6.99-2.94,1.55-5.97,3.02-8.55,1.36-2.39,3.54-1.99,9.25.59-.95-1.98-1.89-3.96-2.84-5.93,0,0,.19.15.19.15.59-.63,1.18-1.26,1.77-1.88.44.51,1.07.96,1.28,1.54.82,2.27,1.71,4.55,2.16,6.89.17.89-.53,2.4-1.32,2.82-.75.39-2.17-.23-3.26-.51-.42-.11-.76-.49-1.14-.75-3.3-2.24-4.63-1.79-5.25,2-.27,1.61.02,3.3,0,4.95-.04,1.92-.81,2.93-3.18,2.44-.74-.15-1.68.48-2.51.81-1.05.42-2.27,1.44-3.05,1.2-.86-.27-1.64-1.61-1.88-2.6-2.06-8.53-1.46-12.97,2.77-20.2.53-.9,1.79-1.44,3.03-2.39-1.66-2.46.84-6.47-3.9-8.77-.72,1.98-1.63,3.75-2,5.61-.78,3.9-1.99,4.58-5.72,2.84-.99,2.12-1.95,4.25-2.98,6.35-1.71,3.5-4.61,3.74-7,.62-.69-.91-.9-2.31-2.8-1.96-.22.04-1.13-1.88-1.26-2.94-.2-1.58-.12-3.22.09-4.81.21-1.61.47-3.3,1.24-4.71.34-.62,2.34-1.18,2.95-.83,1.63.94,2.43.28,3.2-.81.85-1.21.68-3.69,2.92-3.13,1.32.33,2.19,2.2,3.39,3.52-.28.08,0,.04.01,0,.21-3.93,1.56-7.25,5.38-9.45.83-.48,1.45-1.38,1.94-2.2,1.08-1.78,2.66-3.24,4.64-1.95.99.64.8,2.84,1.14,4.33.24-.54.98-1.53,1.08-2.57.18-2.07-.08-4.17,0-6.26.19-4.89,1.89-6.63,6.63-7.38.48-2.67.93-5.19,1.38-7.73-3.24,3-6.26,7.51-12.35,4.01.31.19.64.37.94.58,2,1.46,4.32,2.86,3.49,5.69-.97,3.28-3.13,6.26-6.78,6.65-5.44.57-11,.21-16.5.1-.93-.02-2.04-.59-2.69-1.23-.54-.53-.83-1.62-.64-2.33.13-.52,1.17-1.09,1.88-1.18,2.11-.25,4.26-.27,6.54-.38-2.26-2.79-2.21-3.11,1.15-5.25-1.33-1.69-2.73-3.31-3.95-5.04-1.18-1.69-.32-3.2,1.29-3.95,2.98-1.39,6.11-2.52,9.23-3.64,1.73-.62,3.56-.98,5.34-1.45-.04-.27-.08-.54-.12-.82-.85-.15-1.75-.17-2.53-.47-2.85-1.1-3.06-4.33-.6-6.17.71-.53,1-1.57,1.43-2.39.84-1.59,1.64-3.2,2.62-5.13-.88-.16-2.1-.35-3.3-.62-2.94-.66-6.27-.25-8.84-1.26-2.76-1.08-4.8-3.81-7.07-5.9-1.04-.96-1.68-2.4-2.86-3.12-1.94-1.18-3.79-2.2-4.04-4.63-.06-.59-.77-1.13-1.2-1.68-.59-.77-1.46-1.46-1.72-2.31-.3-.99-.49-2.48.08-3.09.54-.57,2.16-.38,3.28-.31.68.04,1.34.51,1.65.64.77-2.01,1.2-4.07,2.4-5.63.32-.42,2.97.7,4.55,1.11.74-1.18,1.69-2.98,2.95-4.58.51-.65,1.76-1.29,2.52-1.16.72.13,1.36,1.2,1.81,1.97,1.03,1.76,1.93,3.58,3.04,5.67,2.27-2.1,3.59-1.2,4.88.21.41.45,1.03.73,1.53,1.1-.92,4.57-.48,8.97,1.89,13.12.14.25.5.42.8.56,3.57,1.68,4.57,3.8,3.48,7.66.85-.04,1.64-.08,2.24-.11.35-2.32.67-4.48,1-6.74-3.13.41-4.98-1.55-6-4.09-1.36-3.38-2.31-6.91-3.43-10.38Zm3.07,21.12c0-1.09.29-2.39-.07-3.49-.55-1.68-2.01-.89-3.29-.69-3.97.63-6.12-.56-7.9-3.88-1.29-2.41-1.55-4.71-.48-7.26.89-2.13,1.34-4.39-.35-6.46-1.1-1.34-2.25-2.64-3.38-3.96-.24,0-.49.01-.73.02.12,1.28-.01,2.63.4,3.82.94,2.73-.55,5.33-3.54,5.03-1.4-.14-2.61-1.85-3.68-2.67-.43,1.71,1.36,4.95-3.69,5.99,1.57,1.16,2.59,2.05,3.75,2.72,1.86,1.07,3.1,2.27,4.02,4.34.84,1.9,3.43,3.14,5.24,4.67,2.81-1.84,5.07-.33,7.59.82,1.56.71,3.55.62,6.1,1Zm89.42-29.62c2.85,0,4.91-.09,6.96.02,4.35.23,4.91-.08,6.99-4.64-3.75-.79-7.41-1.56-11.51-2.42-.86,2.48-1.61,4.66-2.44,7.05ZM25.85,135.15c-.02,1.31-.92,3.4,2.1,4.27.39.11.33,1.51.51,2.31.29,1.32.59,2.64.89,3.97,3.43-4.19,5.07-8.42,3.53-12.92-2.22.75-4.36,1.47-7.03,2.36Zm17.71-10.38c-.33-.11-.66-.22-1-.32-4.31,2.82-2.6,7.45-3.43,11.31,1.47-3.66,2.95-7.33,4.42-10.99Zm182.44,111.35c-2.36-2.39-10.2-3.51-13.82-1.74,4.61.58,9.48,1.19,13.82,1.74Z"/>
    <path class="cls-4" d="m140.82,336.3c-3.86,1.3-9.05,2.39-13.44,4.75-3.42,1.83-5.91,5.21-8.73,7.96-1.34,1.31-2.33,2.79-4.73,2.79-5.9,0-7.16-.82-8.36-6.17-1.61-7.2-1.17-5.52-7.38-4.11-2.32.53-4.83.86-7.18.64-3.29-.3-4.02-1.61-3.38-4.81-3.21.21-3.51-1.57-2.88-3.91-1.72-1-3.14-.99-4.97-.09-2.85,1.4-5.96,2.31-8.94,3.49-.84.33-1.6.84-2.37,1.3-2.25,1.33-4.66,2-7.18.92-2.2-.95-2.35-2.96-2.39-4.93,0-.43-.18-.88-.11-1.3.68-4.1.18-7.16-5.58-7.18-2.07,0-2.46-2.26-.83-4.03,2.26-2.45,5.28-3.76,8.66-3.75,2.95,0,4.83-.9,6.42-3.2,2.63-3.8,6.53-5.81,11.44-6.26,4.03-.37,6.33-3.04,8.35-5.99,1.24-1.8,2.66-3.5,3.9-5.3.43-.63.96-1.48.82-2.11-.48-2.23.58-3.79,1.9-5.48.65-.83.63-2.16.73-3.27.05-.56-.33-1.16-.54-1.74-1.13-3.02-2.6-6-.71-9.56-4.4.56-7.9,1.74-10.87,4.19-1.05.86-2.12,1.74-3.33,2.38-1.81.96-3.62.85-5.05-.74-1.44-1.61-1.68-3.38-.13-4.96,1.38-1.4,3.14-2.47,4.58-3.83,2.52-2.38,4.92-4.87,7.18-7.11-2.09-.93-3.77-1.49-5.23-2.35-2.36-1.4-4.69-2.89-6.84-4.56-3.1-2.41-2.96-5.93.25-8.16,5.78-4,17.89-1.15,21.13,5.17,1.18-.45,2.63-.66,3.55-1.43,2-1.65,4.26-1.95,6.56-1.27,2.64.78,4.94.38,7.29-.72,1.08-.5,2.24-.88,3.39-1.24,3.37-1.04,4.88-.58,7.01,2.08.28.35.57.69.89,1,.09.09.32.05.81.11-2.19-3.49.23-5.44,2.51-7.64,2.05-1.98,4.1-4.1,5.46-6.5,1.51-2.67.55-3.82-2.65-4.34-3.87-.63-4.88-2.81-2.77-5.99.19-.29.63-.58.61-.84-.6-5.53,4.6-7.28,7.75-10.39,1.15-1.14,1.91-2.62,3.08-4.27-2.49-.36-4.13-.51-5.72-.85-2.34-.5-4.53-.97-4.85,2.26-.07.74-.49,1.45-.75,2.17-.57-.37-1.15-.73-1.72-1.1.43-1.76.83-3.53,1.31-5.29.08-.3.49-.76.71-.74,2.35.18,5.3-.28,6.87.87,1.56,1.14,2.67.75,3.95.66,1.8-.13,2.7.61,2.1,2.23-1.31,3.51-2.74,6.98-6.45,9.04-1.97,1.09-3.07,2.54-3.1,4.85-.02,1.36-.92,2.72-1.52,4.33.73.13,1.67.27,2.61.46,3.12.64,4.38,2.28,4.1,5.24-.38,4.02-2.86,6.97-5.96,9.43-2.47,1.97-4.17,3.76-2.12,6.94.5.77.2,2.68-.5,3.21-.67.51-2.53.25-3.49-.27-1.4-.75-2.37-2.19-3.72-3.05-.91-.58-2.23-1.04-3.28-.92-1.44.17-2.75,1.19-4.19,1.42-2.5.41-5.1.82-7.59.62-2.1-.17-3.59.14-5.43,1.14-1.77.96-4.21.96-6.38,1.17-.5.05-1.33-.66-1.62-1.2-2.53-4.59-10.33-7.01-15.18-4.65-2.55,1.25-2.8,3.18-.5,4.77,2.47,1.71,5.03,3.29,7.74,5.05,1.14-1.14,2.04-2.25,3.17-3.1.64-.49,1.87-.99,2.44-.73.76.35,1.5,1.4,1.57,2.19.08,1.04-.3,2.23-.85,3.17-2.99,5.1-6.82,9.54-11.9,13.04-.91.63-1.28,1.95-1.9,2.94,1.18-.42,2.61-.57,3.48-1.3,3.78-3.14,8.12-4.99,13.16-5.21,3.57-.16,4.18,1.05,3.15,4.15-.53,1.6-.2,3.54.11,5.26.36,2.04,2.02,4.24,1.52,5.97-1.04,3.59-2.54,7.13-3.98,10.63-.93,2.27-2.98,4.13-4.45,6.22-2.57,3.66-5.79,6.34-10.76,6.72-4.04.31-6.98,2.4-9.11,5.47-1.75,2.53-3.84,3.91-7.35,3.83-2.27-.05-4.58,1.08-6.99,1.72.36.64.41.86.52.89,6.02,1.65,6.28,1.98,6.21,7.77-.01.96-.11,1.94.06,2.87.18.95.43,2.45,1.03,2.64.99.3,2.33-.15,3.44-.5,1.89-.6,3.75-1.3,5.56-2.08,2.28-.99,4.55-2.01,6.72-3.18,3.77-2.04,8.04-.66,9.36,3.17,2.02-.09,4.07-.36,6.08-.19,1.52.13,3.62.6,3.12,2.52-.23.89-2.06,1.57-3.3,2.05-.96.37-2.13.29-3.2.41v.63c1.16.1,2.32.34,3.46.25,1.2-.09,2.38-.45,3.55-.77,8.29-2.29,9.06-1.85,10.79,6.12.33,1.53-.04,3.42,2.42,3.92,2.45.49,4.29,0,5.8-2,1.39-1.84,2.88-3.76,4.77-5.11,2.38-1.7,5.14-2.96,7.86-4.2,3.34-1.53,6.82-2.81,10.2-4.28,1.27-.55,2.38-1.4,3.63-1.98,1.82-.85,3.93-2.88,5.67-.6,1.53,2-.83,3.46-2.26,4.74-2.7,2.4-5.08,4.87-6.79,8.11-3.22,6.1-9.07,10.17-14.91,13.9-1.92,1.23-5.23,1.08-7.82.82-4.57-.46-9.02-1.03-13.66-.12-3.07.61-6.34.36-9.52.48-5.43.21-6.98,2.1-6.75,6.03.16,2.81-1.7,4.49-4.71,4.95-1.02.16-2.05.22-3.08.31-.93.08-1.85.15-2.87.23-.03.3-.13.55-.06.75,1.99,6.3.86,8.75-5.04,12.45-2.76,1.73-5.13,4-7.63,6.07-2.29,1.89-4.58,3.76-6.75,5.77-1.04.96-1.85,2.16-2.65,3.32-1.06,1.54-1.95,3.17-3.02,4.7-1.41,2.01-3.33,3.38-6.04,3.2-3.13-.21-5.25,1.19-7.27,3.68.84,0,1.51.19,1.91-.03,3.11-1.77,5.87-.83,8.23,1.12,1.94,1.6,3.5,3.59,5.21,5.43.69.74,1.34,1.52,2.01,2.28.38-.07.76-.14,1.14-.21,0-1.62.29-3.3-.06-4.85-.72-3.23.37-6.02,1.97-8.72,1.37-2.32,3.83-2.62,6.34-2.54,2.57.08,4.91.12,6.72-2.22.72-.93,2.63-1.33,4.05-1.46,2.69-.23,5.43-.19,8.14-.06,2.36.11,4.24.06,5.53-2.37,1.07-2.03,3.34-1.46,5.25-.76,1.88.69,1.05,1.85.62,3.01-.7,1.86.34,2.96,2.21,3.09,2.84.18,5.45.27,7.43,2.77.48.61,3.16.37,4.25-.3.92-.55,1.16-2.27,1.37-3.52.09-.55-.49-1.33-.99-1.8-3.23-3.08-2.1-6.37,1.23-9,8.55-6.74,18.33-8.45,29.05-5.86,1.08.26,2.04,1.09,2.94,1.79.71.55,1.19,1.34,1.84,1.96,3.56,3.36,5.25,3.39,8.45-.2,1.78-2,3.78-2.94,6.58-2.59,1.93.24,3.89.21,5.89.3-.79-4.41.54-5.54,5.13-4.17,2.64.79,5.14,2.07,7.6,3.31,3.79,1.92,11.23,2.47,15.26.63-1.16-.64-1.94-1.36-2.83-1.52-2.38-.44-4.86-.47-7.21-1.01-1.84-.43-3.76-1.12-5.26-2.17-1.91-1.34-1.41-3.23.87-3.97,1.21-.4,2.56-.59,3.85-.6,13.7-.1,27.33,0,40.45,4.72,5.86,2.11,12.28,1.69,18.32.52,3.1-.6,6.24-2.47,8.62-4.51,3.78-3.24,7.8-5.8,12.54-7.7,7.9-3.16,13.58-8.84,18.49-15.23.38-.49.75-.99,1.19-1.57,2.29.58,2.54,1.63,1.21,3.32-5.84,7.43-12.71,13.64-22.12,17.18-2.6.98-5.17,2.57-7.1,4.45-5.62,5.46-12.23,8-20.38,7.6-5.46-.27-10.76-.78-15.95-2.57-11.69-4.04-23.95-3.44-36.12-3.43-.13,0-.26.18-.97.69,1.81.29,3.17.5,4.53.74,2.56.45,5.18.73,7.66,1.44,2.1.6,3.01,2.25,2.68,4.34-.35,2.21-1.89,2.94-4.13,3.06-6.26.34-12.35.27-17.77-3.37-1.45-.97-3.34-1.38-5.46-1.58.53.84,1.15,1.65,1.55,2.55.32.71.37,1.52.53,2.28-.77.07-1.55.27-2.3.19-3.06-.33-6.1-.94-9.17-1.04-1.25-.04-2.87.67-3.75,1.54-4.83,4.8-8.78,4.96-13.32-.11-1.92-2.15-3.98-3.17-6.9-3.18-2.9,0-5.8-.42-8.69-.31-2.34.08-4.94-.02-6.4,2.42-.25.42-1.17.45-1.73.75-1.94,1.02-3.97,1.95-5.77,3.17-2.11,1.43-2.66,3.06-.62,5.22,2.3,2.44,2.4,5.22.84,7.47-1.61,2.32-5.15,3.99-7.8,2.76-3.35-1.55-6.56-3.01-10.26-3.85-1.53-.35-2.44-3.05-3.6-4.66-1.17,3.11-4.61,2.41-7.82,2.34-2.16-.04-4.33-.17-6.47.02-1.23.1-2.89.42-3.52,1.21-1.89,2.4-4.45,2.98-7.2,2.6-3.23-.44-5.3,1.29-7.47,2.83-.53.38-.8,2.09-.56,2.23,2.27,1.26.9,2.47.27,3.87-.44.98-.35,2.16-.5,3.25.32.03.64.05,1.14.09.46,1.43.16,2.9-1.89,3.64-2.05.74-3.64.03-4.95-1.46-1.83-2.08-3.54-4.26-5.53-6.19-1.46-1.42-3.15-2.16-5.52-.97-2.01,1.01-4.35.67-5.66-1.39-1.33-2.07.41-3.21,1.8-4.61,2.28-2.28,4.93-3.09,8.2-3.13,1.16-.01,2.59-.95,3.39-1.85,1.29-1.46,1.99-3.37,3.26-4.85,1.47-1.72,3.27-3.2,4.94-4.76.52-.49,1.19-.86,1.66-1.39,3.77-4.25,7.88-8.09,13.03-10.99,3.1-1.75,3.45-3.75,2.22-7.01-1.4-3.7-.37-5.21,3.8-5.53.93-.07,1.88-.09,2.81-.08,2.52.04,3.72-.96,3.84-3.42.24-5.06,2.58-7.17,7.95-7.63,5.21-.44,10.42-1.1,15.64-1.28,3.15-.11,6.35.38,9.48.87,3.61.56,6.58-.09,9.16-2.65,2.04-2.03,4.51-3.67,6.63-5.64,1.37-1.28,2.59-2.77,3.62-4.3,1.63-2.43,3.05-4.97,4.06-6.64Z"/>
    <path class="cls-4" d="m58.82,145.5s-.19-.15-.19-.15c.19,1.74-.31,2.91-2.53,2.8-2.1-.11-2.99-1.44-2.6-3,1.04-4.1.86-8.1.63-12.29-.22-4.23,2.82-8,6.2-11.04,1.74-1.57,3.68-2.97,5.66-4.28.61-.4,1.95-.62,2.39-.28.5.39.8,1.75.46,2.23-1.92,2.62-4.02,5.14-6.15,7.62-.74.86-1.97,1.4-2.59,2.31-.84,1.24-.72,2.39,1.18,2.99,1.23.38,2.3,1.19,2.99,1.57,1.19-.97,2.57-2.03,3.85-3.18,1-.9,1.72-2.13,2.84-2.85,1.08-.69,2.51-.91,3.79-1.34.53,1.38,1.69,2.87,1.43,4.11-.3,1.48-1.7,2.83-2.82,4.09-3.42,3.87-3.35,5.66.47,9.11,1.2,1.09,2.39,2.21,3.41,3.45,1.4,1.69,1.1,3.12-.92,4.37-.68.42-1.3,1.57-1.2,2.29.46,3.34.35,6.44-1.8,9.41-1.71,2.37-2.76,5.15-4.46,7.53-.82,1.15-2.47,1.79-3.74,2.67-.55.38-1.28.68-1.59,1.19-1.39,2.25-2.53,4.64-4.03,6.82-1.13,1.64-.91,3.05.44,4.2,1.82,1.56,3.88,2.88,5.83,4.3.21-.16.43-.31.64-.47-.46-1.37-1.05-2.71-1.34-4.11-.16-.76-.11-1.88.38-2.33.48-.44,1.78-.52,2.49-.25,3.36,1.3,6.64,2.78,9.96,4.17,1.06.45,2.14.84,3.71,1.46-.45-1.82-.87-3.05-1.04-4.3-.38-2.78,1.61-4.15,4.37-2.96,1.26.54,2.42,1.32,3.53,2.11,1.91,1.36,3.6,2.65,6.44,2.44,1.5-.11,3.15,1.63,5.2,2.8,1.15-.64,2.93-1.74,4.81-2.67,3.52-1.74,7.17-1.98,10.78-.3,2.56,1.19,3.13,3.12,1.32,5.1-2.14,2.35-2.13,4.82-.84,7.29,1.05,2,1.35,3.9.69,5.99l.08-.07c-3.96-2.11-5.9-9.68-3.44-13.48.38-.59.84-1.13,1.39-1.88-2.73-1.76-5.49-1.53-8.17-.35-1.85.81-3.52,1.98-5.28,2.96-2,1.12-3.79,1.03-4.96-1.05-.75-1.33-1.57-1.84-3.33-1.56-1.1.18-2.52-.38-3.55-.97-1.88-1.08-3.58-2.43-6.07-4.17.37,1.56.59,2.34.74,3.13.68,3.55-1.37,5.3-5.01,4.06-2.8-.96-5.43-2.32-8.15-3.49-.74-.32-1.49-.6-2.43-.98.35,1.73.78,3.24.94,4.77.23,2.24-.74,2.98-2.99,2.2-1.65-.57-3.25-1.35-4.75-2.22-6.52-3.79-7.3-6.29-4.01-12.54,1.02-1.94,2.03-3.89,3.23-5.74.44-.68,1.37-1.45,2.13-1.51,2.29-.15,3.18-1.56,3.99-3.17,1.64-3.27,3.45-6.49,4.84-9.85.49-1.17.29-2.8-.15-4.06-.9-2.56-.42-4.26,3.17-4.99-6.33-5.39-9.83-12.9-18.43-15.69,1.73,3.71,1.49,7.54-.6,11.4,1.14.27,1.94.45,2.73.64Z"/>
    <path class="cls-4" d="m2.82,51.48c-3.59-2.51-1.98-5.81-.97-9.05.65-2.09,1.89-2.65,3.96-1.45.77.45,1.65.73,2.1.92,1.8-1.74,3.44-3.21,4.92-4.8.6-.65,1.28-1.62,1.18-2.36-.33-2.47-1.08-4.89-1.52-7.36-.37-2.1-.9-4.26-.67-6.32.13-1.2,1.44-2.94,2.56-3.19,1.1-.25,2.65,1,3.94,1.7.45.24.71.77,1.38,1.55.56-1.58,1.07-2.84,1.47-4.12,2.15-6.94,7.27-11.23,14.46-13.35,1.58-.47,4.35-.11,5.28.89.94,1.01.74,3.43.23,5.01-1.01,3.12-2.54,6.11-3.93,9.12-.77,1.66-1.7,3.26-2.59,4.95,2.39,2.06,2.69,3.67.57,6.33-1.92,2.41-3.76,5.11-7.73,4.83-.37-.03-.82.46-1.16.77-.46.42-.81,1.28-1.26,1.31-4.4.34-3.92,3.61-4.12,6.15-.21,2.77-1.7,3.9-4.33,4.62-1.31.36-2.74,1.2-3.5,2.22-4.35,5.81-6.89,12.26-7.53,19.37-.11,1.17-1.21,2.27-1.86,3.4-1.07-.92-2.34-1.71-3.15-2.79-.52-.7-.61-1.84-.5-2.75.47-4.05,1.04-8.1,1.66-12.13.17-1.09.67-2.13,1.12-3.47Zm12.58-30.91c-.35.1-.69.2-1.04.31.27,1.74.47,3.49.83,5.21.55,2.63,1.37,5.21,1.8,7.85.39,2.37-.27,4.41-2.74,5.8-1.03.58-2.23,1.7-2.36,2.69-.33,2.51-1.72,2.8-3.89,2.3-1.07-.25-2.14-.49-3.15-.72-1.57,2.31-1.48,4.31.68,6.27,1.07.97,1.6,2.19.45,3.73-.94,1.25-1.32,2.87-1.95,4.32,2.56-3.33,4.44-6.9,6.75-10.22.93-1.33,2.65-2.47,4.28-3,1.97-.64,2.8-1.43,3.03-3.4.38-3.27,0-7.25,5.61-7.19-.2-1.21-.3-2.07-.48-2.91-.89-4.31-.77-4.57,3.27-6.87.72-.41,1.42-.87,2.2-1.16,3.44-1.29,5.06-3.86,6.17-6.98.96-2.7,2.35-5.26,3.45-7.91.33-.8.37-1.71.55-2.65-6.36.26-13.16,5.86-14.82,11.6-.59,2.06-1.51,4.11-2.73,5.91-1.2,1.76-2.7,1.53-3.96-.22-.66-.91-1.29-1.84-1.93-2.76Zm12.97,10.55c.34.29.68.58,1.01.87,1.37-1.63,2.74-3.25,4.1-4.88-.22-.16-.45-.31-.67-.47-1.48,1.49-2.96,2.99-4.44,4.48Z"/>
    <path class="cls-4" d="m152.43,18.5c1.16-.61,2.37-1.14,3.47-1.83,1.59-1,3.3-2.94,5.09-1.42,1.02.87.68,3.13.61,4.82,2.11,2.1,2.07,2.83-.64,4.85-.57.42-1.07.92-1.6,1.4-.86.77-1.82,2.26-2.55,2.16-1.27-.17-2.41-1.27-3.55-2.06-.32-.22-.41-.73-.35-.61-2.38-.27-4.35-.49-5.83-.66-.48,1.54-.72,3.83-1.87,5.61-1.47,2.26-3.97,1.89-5.16-.58-1.04-2.16-1.99-4.4-2.58-6.69-.62-2.42,1.44-2.82,3.25-3-.54-4.8,1.64-8.7,4.79-12.03.79-.83,3.36-.83,4.8-.37,2.01.64,3.29,2.31,2.74,4.57-.42,1.74-.92,3.47-1.39,5.2.26.22.52.43.78.65Zm-2.19,4.44c3.74-1.36,4.09-1.24,5.84,2.05.79-.7,1.59-1.4,2.23-1.97-.36-1.2-.68-2.28-.98-3.25-1.23.38-2.35.84-3.52,1.08-3.83.78-5.73-1.05-4.87-4.65.26-1.1.84-2.18.85-3.28,0-.85-.65-1.71-1.01-2.56-.73.36-1.79.55-2.12,1.12-1.12,1.89-2.1,3.88-2.88,5.92-.2.53.35,1.61.91,2.02,1.65,1.22,3.48,2.24,5.56,3.54Z"/>
    <path class="cls-4" d="m90.18,201.83c-.81,3.55-1.85,6.28-4.51,8.47-.89.73-1.58,1.94-1.81,3.03-.44,2.14-1.57,3.58-3.58,4.68-1.76.96-3.22,2.38-5,3.31-.92.49-2.6.83-3.26.38-.85-.57-1.53-2.09-1.36-3.06.33-1.83,1.13-3.64,2.07-5.3,1.81-3.2,3.81-6.32,5.83-9.42,1.05-1.61,2.2-3.19,3.48-4.64,1.27-1.44,3.12-2.97,5.01-1.86,1.46.86,2.1,2.9,3.11,4.41Zm-4.6-2.19c-5.36,5.73-7.55,12.82-11.93,18.72,1.98-.8,3.66-1.75,5.13-2.91.85-.67,1.45-1.66,2.05-2.57,1.09-1.64,1.84-3.53,3.18-4.94,2.15-2.26,3.09-5.29,1.56-8.3Z"/>
    <path class="cls-4" d="m6.84,104.93c.76-2.17,1.18-3.97,2.01-5.59,1.39-2.72,3.23-3.36,6.43-3.04.95.09,2.33-.33,2.92-.98,2.24-2.47,4.6-4.62,8.36-4.6.79,0,1.99.08,2.26.51.37.6.39,1.85-.05,2.34-2.07,2.3-4.22,4.57-6.59,6.6-2.71,2.33-5.59,4.52-8.6,6.5-1.24.82-3.09,1.44-4.49,1.22-.92-.15-1.54-1.96-2.24-2.97Zm3.84.16c2.03-1.75,4.05-3.49,6.11-5.27-4.5-1.46-6.84.6-6.11,5.27Z"/>
    <path class="cls-4" d="m116.88,204.1c.52-.14,1.05-.28,1.35-.36,1.1,2.09,2.17,4.13,3.25,6.16,0,0,.06-.08.06-.08-.52.18-1.06.33-1.56.55-1.98.86-3.19.3-3.32-1.77-.09-1.51.2-3.05.31-4.57,0,0-.09.08-.09.08Z"/>
    <path class="cls-4" d="m121.47,209.9c.38-.43.76-.86,1.19-1.35,1.67,3.32,1.31,4.98-1.73,6.7.23-2.03.41-3.74.6-5.44,0,0-.06.08-.06.08Z"/>
  </g>
  <circle class="cls-3" cx="267.09" cy="294.68" r="11.89"/>
  <line class="cls-2" x1="315.35" y1="137.41" x2="270.21" y2="286.39"/>
  <text class="cls-1" transform="translate(226 124.45)"><tspan x="0" y="0">Norfolk (UK)</tspan></text>
</svg>